<?xml version="1.0" encoding="utf-8"?>
<!-- Generator: Adobe Illustrator 21.0.0, SVG Export Plug-In . SVG Version: 6.00 Build 0)  -->
<svg version="1.1" id="Layer_1" xmlns="http://www.w3.org/2000/svg" xmlns:xlink="http://www.w3.org/1999/xlink" x="0px" y="0px"
	 viewBox="0 0 1920 936" style="enable-background:new 0 0 1920 936;" xml:space="preserve">
<style type="text/css">
	.st0{fill:#262626;}
	.st1{font-family:'MyriadPro-Regular';}
	.st2{font-size:41.3333px;}
	.st3{font-size:23.3333px;}
	.st4{fill:none;stroke:#B3B3B3;stroke-width:5;stroke-linejoin:round;stroke-miterlimit:10;}
	.st5{fill:#FFFF80;stroke:#BCB469;stroke-width:2;stroke-miterlimit:10;}
	.st6{fill:none;stroke:#77703E;stroke-width:2;stroke-miterlimit:10;}
	.st7{fill:#80FFFF;}
	.st8{fill:none;stroke:#000000;stroke-width:3.3333;stroke-linecap:square;stroke-linejoin:round;stroke-miterlimit:10;}
	.st9{font-size:21.3333px;}
	.st10{fill:none;stroke:#000000;stroke-width:0.8333;stroke-linejoin:round;stroke-miterlimit:10;}
	.st11{fill:#F2F2F2;}
	.st12{font-size:85.4364px;}
	.st13{font-size:29.3333px;}
</style>
<g>
	<text transform="matrix(1 0 0 1 867.7041 868.9998)" class="st0 st1 st2">System geister</text>
	<text transform="matrix(1 0 0 1 841.6855 909.9988)" class="st0 st1 st3">is: 12 inputs, 5 outputs, 18 rules</text>
	<line class="st4" x1="796.8" y1="98.6" x2="994" y2="451.5"/>
	<line class="st4" x1="796.8" y1="162.2" x2="994" y2="451.5"/>
	<line class="st4" x1="796.8" y1="225.8" x2="994" y2="451.5"/>
	<line class="st4" x1="796.8" y1="289.4" x2="994" y2="451.5"/>
	<line class="st4" x1="796.8" y1="352.9" x2="994" y2="451.5"/>
	<line class="st4" x1="796.8" y1="416.5" x2="994" y2="451.5"/>
	<line class="st4" x1="796.8" y1="480.1" x2="994" y2="451.5"/>
	<line class="st4" x1="796.8" y1="543.7" x2="994" y2="451.5"/>
	<line class="st4" x1="796.8" y1="607.3" x2="994" y2="451.5"/>
	<line class="st4" x1="796.8" y1="670.9" x2="994" y2="451.5"/>
	<line class="st4" x1="796.8" y1="734.4" x2="994" y2="451.5"/>
	<line class="st4" x1="796.8" y1="798" x2="994" y2="451.5"/>
	<line class="st4" x1="1191.2" y1="146.3" x2="994" y2="451.5"/>
	<line class="st4" x1="1191.2" y1="298.9" x2="994" y2="451.5"/>
	<line class="st4" x1="1191.2" y1="451.5" x2="994" y2="451.5"/>
	<line class="st4" x1="1191.2" y1="604.1" x2="994" y2="451.5"/>
	<line class="st4" x1="1191.2" y1="756.7" x2="994" y2="451.5"/>
	<g>
		<path class="st5" d="M499,126h297V72H499V126z"/>
		<path class="st6" d="M523.8,76.5l1.4,0.2l1.4,0.3l1.4,0.2l1.4,0.3l1.4,0.2L532,78l1.4,0.2l1.4,0.3l1.4,0.2l1.4,0.2l1.4,0.3
			l1.4,0.2l1.4,0.3L543,80l1.4,0.3l1.4,0.2l1.4,0.3l1.4,0.2l1.4,0.3l1.4,0.2l1.4,0.3L554,82l1.4,0.3l1.4,0.2l1.4,0.3l1.4,0.2
			l1.4,0.3l1.4,0.2l1.4,0.3L565,84l1.4,0.3l1.4,0.2l1.4,0.3l1.4,0.2l1.4,0.3l1.4,0.2l1.4,0.2L576,86l1.4,0.2l1.4,0.3l1.4,0.2
			l1.4,0.3l1.4,0.2l1.4,0.3l1.4,0.2L587,88l1.4,0.2l1.4,0.3l1.4,0.2l1.4,0.3l1.4,0.2l1.4,0.3l1.4,0.2L598,90l1.4,0.2l1.4,0.3
			l1.4,0.2l1.4,0.3l1.4,0.2l1.4,0.3l1.4,0.2L609,92l1.4,0.2l1.4,0.2l1.4,0.3l1.4,0.2l1.4,0.3l1.4,0.2l1.4,0.3L620,94l1.4,0.3
			l1.4,0.2l1.4,0.3l1.4,0.2l1.4,0.3l1.4,0.2l1.4,0.3L631,96l1.4,0.3l1.4,0.2l1.4,0.3l1.4,0.2l1.4,0.3l1.4,0.2l1.4,0.3L642,98
			l1.4,0.3l1.4,0.2l1.4,0.3l1.4,0.2l1.4,0.2l1.4,0.3l1.4,0.2l1.4,0.3l1.4,0.2l1.4,0.3l1.4,0.2l1.4,0.3l1.4,0.2l1.4,0.3l1.4,0.2
			l1.4,0.3l1.4,0.2l1.4,0.3l1.4,0.2l1.4,0.3l1.4,0.2l1.4,0.3l1.4,0.2l1.4,0.3l1.4,0.2l1.4,0.3l1.4,0.2l1.4,0.3l1.4,0.2l1.4,0.3
			l1.4,0.2l1.4,0.2l1.4,0.3l1.4,0.2l1.4,0.3l1.4,0.2l1.4,0.3l1.4,0.2l1.4,0.3l1.4,0.2l1.4,0.3l1.4,0.2l1.4,0.3l1.4,0.2l1.4,0.3
			l1.4,0.2l1.4,0.3l1.4,0.2l1.4,0.3l1.4,0.2l1.4,0.3l1.4,0.2l1.4,0.3l1.4,0.2l1.4,0.3l1.4,0.2l1.4,0.3l1.4,0.2l1.4,0.2l1.4,0.3
			l1.4,0.2l1.4,0.3l1.4,0.2l1.4,0.3l1.4,0.2l1.4,0.3l1.4,0.2l1.4,0.3l1.4,0.2l1.4,0.3l1.4,0.2l1.4,0.3l1.4,0.2l1.4,0.3l1.4,0.2
			l1.4,0.3l1.4,0.2l1.4,0.3l1.4,0.2l1.4,0.3l1.4,0.2l1.4,0.3l1.4,0.2l1.4,0.3l1.4,0.2l1.4,0.2l1.4,0.3l1.4,0.2l1.4,0.3l1.4,0.2
			l1.4,0.3l1.4,0.2l1.4,0.3l1.4,0.2"/>
		<path class="st6" d="M523.8,121.5l1.4-0.2l1.4-0.3l1.4-0.2l1.4-0.3l1.4-0.2l1.4-0.3l1.4-0.2l1.4-0.3l1.4-0.2l1.4-0.2l1.4-0.3
			l1.4-0.2l1.4-0.3l1.4-0.2l1.4-0.3l1.4-0.2l1.4-0.3l1.4-0.2l1.4-0.3l1.4-0.2l1.4-0.3l1.4-0.2l1.4-0.3l1.4-0.2l1.4-0.3l1.4-0.2
			l1.4-0.3l1.4-0.2l1.4-0.3l1.4-0.2l1.4-0.3l1.4-0.2l1.4-0.3l1.4-0.2l1.4-0.3l1.4-0.2l1.4-0.2l1.4-0.3l1.4-0.2l1.4-0.3l1.4-0.2
			l1.4-0.3l1.4-0.2l1.4-0.3l1.4-0.2l1.4-0.3l1.4-0.2l1.4-0.3l1.4-0.2l1.4-0.3l1.4-0.2l1.4-0.3l1.4-0.2l1.4-0.3l1.4-0.2l1.4-0.3
			l1.4-0.2l1.4-0.3l1.4-0.2l1.4-0.3l1.4-0.2l1.4-0.3l1.4-0.2l1.4-0.2l1.4-0.3l1.4-0.2l1.4-0.3l1.4-0.2l1.4-0.3l1.4-0.2l1.4-0.3
			l1.4-0.2l1.4-0.3l1.4-0.2l1.4-0.3l1.4-0.2l1.4-0.3l1.4-0.2l1.4-0.3l1.4-0.2l1.4-0.3l1.4-0.2l1.4-0.3l1.4-0.2l1.4-0.3l1.4-0.2
			l1.4-0.3l1.4-0.2l1.4-0.3l1.4-0.2l1.4-0.2l1.4-0.3l1.4-0.2L653,98l1.4-0.2l1.4-0.3l1.4-0.2l1.4-0.3l1.4-0.2l1.4-0.3l1.4-0.2
			L664,96l1.4-0.2l1.4-0.3l1.4-0.2l1.4-0.3l1.4-0.2l1.4-0.3l1.4-0.2L675,94l1.4-0.2l1.4-0.3l1.4-0.2l1.4-0.3l1.4-0.2l1.4-0.3
			l1.4-0.2L686,92l1.4-0.3l1.4-0.2l1.4-0.3l1.4-0.2l1.4-0.3l1.4-0.2l1.4-0.3L697,90l1.4-0.3l1.4-0.2l1.4-0.3l1.4-0.2l1.4-0.3
			l1.4-0.2l1.4-0.3L708,88l1.4-0.3l1.4-0.2l1.4-0.3l1.4-0.2l1.4-0.3l1.4-0.2l1.4-0.3L719,86l1.4-0.3l1.4-0.2l1.4-0.2l1.4-0.3
			l1.4-0.2l1.4-0.3l1.4-0.2L730,84l1.4-0.2l1.4-0.3l1.4-0.2l1.4-0.3l1.4-0.2l1.4-0.3l1.4-0.2L741,82l1.4-0.2l1.4-0.3l1.4-0.2
			l1.4-0.3l1.4-0.2l1.4-0.3l1.4-0.2L752,80l1.4-0.2l1.4-0.3l1.4-0.2l1.4-0.3l1.4-0.2l1.4-0.2l1.4-0.3L763,78l1.4-0.3l1.4-0.2
			l1.4-0.3l1.4-0.2l1.4-0.3l1.4-0.2"/>
		<path class="st5" d="M499,189h297v-54H499V189z"/>
		<path class="st6" d="M523.8,139.5l1.4,0.2l1.4,0.3l1.4,0.2l1.4,0.3l1.4,0.2l1.4,0.3l1.4,0.2l1.4,0.3l1.4,0.2l1.4,0.2l1.4,0.3
			l1.4,0.2l1.4,0.3l1.4,0.2l1.4,0.3l1.4,0.2l1.4,0.3l1.4,0.2l1.4,0.3l1.4,0.2l1.4,0.3l1.4,0.2l1.4,0.3l1.4,0.2l1.4,0.3l1.4,0.2
			l1.4,0.3l1.4,0.2l1.4,0.3l1.4,0.2l1.4,0.3l1.4,0.2l1.4,0.3l1.4,0.2l1.4,0.3l1.4,0.2l1.4,0.2l1.4,0.3l1.4,0.2l1.4,0.3l1.4,0.2
			l1.4,0.3l1.4,0.2l1.4,0.3l1.4,0.2l1.4,0.3l1.4,0.2l1.4,0.3l1.4,0.2l1.4,0.3l1.4,0.2l1.4,0.3l1.4,0.2l1.4,0.3l1.4,0.2l1.4,0.3
			l1.4,0.2l1.4,0.3l1.4,0.2l1.4,0.3l1.4,0.2l1.4,0.3l1.4,0.2l1.4,0.2l1.4,0.3l1.4,0.2l1.4,0.3l1.4,0.2l1.4,0.3l1.4,0.2l1.4,0.3
			l1.4,0.2l1.4,0.3l1.4,0.2l1.4,0.3l1.4,0.2l1.4,0.3l1.4,0.2l1.4,0.3l1.4,0.2l1.4,0.3l1.4,0.2l1.4,0.3l1.4,0.2l1.4,0.3l1.4,0.2
			l1.4,0.3l1.4,0.2l1.4,0.3l1.4,0.2l1.4,0.2l1.4,0.3l1.4,0.2l1.4,0.3l1.4,0.2l1.4,0.3l1.4,0.2l1.4,0.3l1.4,0.2l1.4,0.3l1.4,0.2
			l1.4,0.3l1.4,0.2l1.4,0.3l1.4,0.2l1.4,0.3l1.4,0.2l1.4,0.3l1.4,0.2l1.4,0.3l1.4,0.2l1.4,0.3l1.4,0.2l1.4,0.3l1.4,0.2l1.4,0.3
			l1.4,0.2l1.4,0.2l1.4,0.3l1.4,0.2l1.4,0.3l1.4,0.2l1.4,0.3l1.4,0.2l1.4,0.3l1.4,0.2l1.4,0.3l1.4,0.2l1.4,0.3l1.4,0.2l1.4,0.3
			l1.4,0.2l1.4,0.3l1.4,0.2l1.4,0.3l1.4,0.2l1.4,0.3l1.4,0.2l1.4,0.3l1.4,0.2l1.4,0.3l1.4,0.2l1.4,0.3l1.4,0.2l1.4,0.2l1.4,0.3
			l1.4,0.2l1.4,0.3l1.4,0.2l1.4,0.3l1.4,0.2l1.4,0.3l1.4,0.2l1.4,0.3l1.4,0.2l1.4,0.3l1.4,0.2l1.4,0.3l1.4,0.2l1.4,0.3l1.4,0.2
			l1.4,0.3l1.4,0.2l1.4,0.3l1.4,0.2l1.4,0.3l1.4,0.2l1.4,0.3l1.4,0.2l1.4,0.3l1.4,0.2l1.4,0.2l1.4,0.3l1.4,0.2l1.4,0.3l1.4,0.2
			l1.4,0.3l1.4,0.2l1.4,0.3l1.4,0.2"/>
		<path class="st6" d="M523.8,184.5l1.4-0.2l1.4-0.3l1.4-0.2l1.4-0.3l1.4-0.2l1.4-0.3l1.4-0.2l1.4-0.3l1.4-0.2l1.4-0.2l1.4-0.3
			l1.4-0.2l1.4-0.3l1.4-0.2l1.4-0.3l1.4-0.2l1.4-0.3l1.4-0.2l1.4-0.3l1.4-0.2l1.4-0.3l1.4-0.2l1.4-0.3l1.4-0.2l1.4-0.3l1.4-0.2
			l1.4-0.3l1.4-0.2l1.4-0.3l1.4-0.2l1.4-0.3l1.4-0.2l1.4-0.3l1.4-0.2l1.4-0.3l1.4-0.2l1.4-0.2l1.4-0.3l1.4-0.2l1.4-0.3l1.4-0.2
			l1.4-0.3l1.4-0.2l1.4-0.3l1.4-0.2l1.4-0.3l1.4-0.2l1.4-0.3l1.4-0.2l1.4-0.3l1.4-0.2l1.4-0.3l1.4-0.2l1.4-0.3l1.4-0.2l1.4-0.3
			l1.4-0.2l1.4-0.3l1.4-0.2l1.4-0.3l1.4-0.2l1.4-0.3l1.4-0.2l1.4-0.2l1.4-0.3l1.4-0.2l1.4-0.3l1.4-0.2l1.4-0.3l1.4-0.2l1.4-0.3
			l1.4-0.2l1.4-0.3l1.4-0.2l1.4-0.3l1.4-0.2l1.4-0.3l1.4-0.2l1.4-0.3l1.4-0.2l1.4-0.3l1.4-0.2l1.4-0.3l1.4-0.2l1.4-0.3l1.4-0.2
			l1.4-0.3l1.4-0.2l1.4-0.3l1.4-0.2l1.4-0.2l1.4-0.3l1.4-0.2l1.4-0.3l1.4-0.2l1.4-0.3l1.4-0.2l1.4-0.3l1.4-0.2l1.4-0.3l1.4-0.2
			l1.4-0.3l1.4-0.2l1.4-0.3l1.4-0.2l1.4-0.3l1.4-0.2l1.4-0.3l1.4-0.2l1.4-0.3l1.4-0.2l1.4-0.3l1.4-0.2l1.4-0.3l1.4-0.2l1.4-0.3
			l1.4-0.2l1.4-0.2l1.4-0.3l1.4-0.2l1.4-0.3l1.4-0.2l1.4-0.3l1.4-0.2l1.4-0.3l1.4-0.2l1.4-0.3l1.4-0.2l1.4-0.3l1.4-0.2l1.4-0.3
			l1.4-0.2l1.4-0.3l1.4-0.2l1.4-0.3l1.4-0.2l1.4-0.3l1.4-0.2l1.4-0.3l1.4-0.2l1.4-0.3l1.4-0.2l1.4-0.3l1.4-0.2l1.4-0.2l1.4-0.3
			l1.4-0.2l1.4-0.3l1.4-0.2l1.4-0.3l1.4-0.2l1.4-0.3l1.4-0.2l1.4-0.3l1.4-0.2l1.4-0.3l1.4-0.2l1.4-0.3l1.4-0.2l1.4-0.3l1.4-0.2
			l1.4-0.3l1.4-0.2l1.4-0.3l1.4-0.2l1.4-0.3l1.4-0.2l1.4-0.3l1.4-0.2l1.4-0.3l1.4-0.2l1.4-0.2l1.4-0.3l1.4-0.2l1.4-0.3l1.4-0.2
			l1.4-0.3l1.4-0.2l1.4-0.3l1.4-0.2"/>
		<path class="st5" d="M499,253h297v-54H499V253z"/>
		<path class="st6" d="M523.8,203.5l1.4,0.2l1.4,0.3l1.4,0.2l1.4,0.3l1.4,0.2l1.4,0.3l1.4,0.2l1.4,0.3l1.4,0.2l1.4,0.2l1.4,0.3
			l1.4,0.2l1.4,0.3l1.4,0.2l1.4,0.3l1.4,0.2l1.4,0.3l1.4,0.2l1.4,0.3l1.4,0.2l1.4,0.3l1.4,0.2l1.4,0.3l1.4,0.2l1.4,0.3l1.4,0.2
			l1.4,0.3l1.4,0.2l1.4,0.3l1.4,0.2l1.4,0.3l1.4,0.2l1.4,0.3l1.4,0.2l1.4,0.3l1.4,0.2l1.4,0.2l1.4,0.3l1.4,0.2l1.4,0.3l1.4,0.2
			l1.4,0.3l1.4,0.2l1.4,0.3l1.4,0.2l1.4,0.3l1.4,0.2l1.4,0.3l1.4,0.2l1.4,0.3l1.4,0.2l1.4,0.3l1.4,0.2l1.4,0.3l1.4,0.2l1.4,0.3
			l1.4,0.2l1.4,0.3l1.4,0.2l1.4,0.3l1.4,0.2l1.4,0.3l1.4,0.2l1.4,0.2l1.4,0.3l1.4,0.2l1.4,0.3l1.4,0.2l1.4,0.3l1.4,0.2l1.4,0.3
			l1.4,0.2l1.4,0.3l1.4,0.2l1.4,0.3l1.4,0.2l1.4,0.3l1.4,0.2l1.4,0.3l1.4,0.2l1.4,0.3l1.4,0.2l1.4,0.3l1.4,0.2l1.4,0.3l1.4,0.2
			l1.4,0.3l1.4,0.2l1.4,0.3l1.4,0.2l1.4,0.2l1.4,0.3l1.4,0.2l1.4,0.3l1.4,0.2l1.4,0.3l1.4,0.2l1.4,0.3l1.4,0.2l1.4,0.3l1.4,0.2
			l1.4,0.3l1.4,0.2l1.4,0.3l1.4,0.2l1.4,0.3l1.4,0.2l1.4,0.3l1.4,0.2l1.4,0.3l1.4,0.2l1.4,0.3l1.4,0.2l1.4,0.3l1.4,0.2l1.4,0.3
			l1.4,0.2l1.4,0.2l1.4,0.3l1.4,0.2l1.4,0.3l1.4,0.2l1.4,0.3l1.4,0.2l1.4,0.3l1.4,0.2l1.4,0.3l1.4,0.2l1.4,0.3l1.4,0.2l1.4,0.3
			l1.4,0.2l1.4,0.3l1.4,0.2l1.4,0.3l1.4,0.2l1.4,0.3l1.4,0.2l1.4,0.3l1.4,0.2l1.4,0.3l1.4,0.2l1.4,0.3l1.4,0.2l1.4,0.2l1.4,0.3
			l1.4,0.2l1.4,0.3l1.4,0.2l1.4,0.3l1.4,0.2l1.4,0.3l1.4,0.2l1.4,0.3l1.4,0.2l1.4,0.3l1.4,0.2l1.4,0.3l1.4,0.2l1.4,0.3l1.4,0.2
			l1.4,0.3l1.4,0.2l1.4,0.3l1.4,0.2l1.4,0.3l1.4,0.2l1.4,0.3l1.4,0.2l1.4,0.3l1.4,0.2l1.4,0.2l1.4,0.3l1.4,0.2l1.4,0.3l1.4,0.2
			l1.4,0.3l1.4,0.2l1.4,0.3l1.4,0.2"/>
		<path class="st6" d="M523.8,248.5l1.4-0.2l1.4-0.3l1.4-0.2l1.4-0.3l1.4-0.2l1.4-0.3l1.4-0.2l1.4-0.3l1.4-0.2l1.4-0.2l1.4-0.3
			l1.4-0.2l1.4-0.3l1.4-0.2l1.4-0.3l1.4-0.2l1.4-0.3l1.4-0.2l1.4-0.3l1.4-0.2l1.4-0.3l1.4-0.2l1.4-0.3l1.4-0.2l1.4-0.3l1.4-0.2
			l1.4-0.3l1.4-0.2l1.4-0.3l1.4-0.2l1.4-0.3l1.4-0.2l1.4-0.3l1.4-0.2l1.4-0.3l1.4-0.2l1.4-0.2l1.4-0.3l1.4-0.2l1.4-0.3l1.4-0.2
			l1.4-0.3l1.4-0.2l1.4-0.3l1.4-0.2l1.4-0.3l1.4-0.2l1.4-0.3l1.4-0.2l1.4-0.3l1.4-0.2l1.4-0.3l1.4-0.2l1.4-0.3l1.4-0.2l1.4-0.3
			l1.4-0.2l1.4-0.3l1.4-0.2l1.4-0.3l1.4-0.2l1.4-0.3l1.4-0.2l1.4-0.2l1.4-0.3l1.4-0.2l1.4-0.3l1.4-0.2l1.4-0.3l1.4-0.2l1.4-0.3
			l1.4-0.2l1.4-0.3l1.4-0.2l1.4-0.3l1.4-0.2l1.4-0.3l1.4-0.2l1.4-0.3l1.4-0.2l1.4-0.3l1.4-0.2l1.4-0.3l1.4-0.2l1.4-0.3l1.4-0.2
			l1.4-0.3l1.4-0.2l1.4-0.3l1.4-0.2l1.4-0.2l1.4-0.3l1.4-0.2l1.4-0.3l1.4-0.2l1.4-0.3l1.4-0.2l1.4-0.3l1.4-0.2l1.4-0.3l1.4-0.2
			l1.4-0.3l1.4-0.2l1.4-0.3l1.4-0.2l1.4-0.3l1.4-0.2l1.4-0.3l1.4-0.2l1.4-0.3l1.4-0.2l1.4-0.3l1.4-0.2l1.4-0.3l1.4-0.2l1.4-0.3
			l1.4-0.2l1.4-0.2l1.4-0.3l1.4-0.2l1.4-0.3l1.4-0.2l1.4-0.3l1.4-0.2l1.4-0.3l1.4-0.2l1.4-0.3l1.4-0.2l1.4-0.3l1.4-0.2l1.4-0.3
			l1.4-0.2l1.4-0.3l1.4-0.2l1.4-0.3l1.4-0.2l1.4-0.3l1.4-0.2l1.4-0.3l1.4-0.2l1.4-0.3l1.4-0.2l1.4-0.3l1.4-0.2l1.4-0.2l1.4-0.3
			l1.4-0.2l1.4-0.3l1.4-0.2l1.4-0.3l1.4-0.2l1.4-0.3l1.4-0.2l1.4-0.3l1.4-0.2l1.4-0.3l1.4-0.2l1.4-0.3l1.4-0.2l1.4-0.3l1.4-0.2
			l1.4-0.3l1.4-0.2l1.4-0.3l1.4-0.2l1.4-0.3l1.4-0.2l1.4-0.3l1.4-0.2l1.4-0.3l1.4-0.2l1.4-0.2l1.4-0.3l1.4-0.2l1.4-0.3l1.4-0.2
			l1.4-0.3l1.4-0.2l1.4-0.3l1.4-0.2"/>
		<path class="st5" d="M499,316.5h297v-54H499V316.5z"/>
		<path class="st6" d="M523.8,267l1.4,0.2l1.4,0.3l1.4,0.2l1.4,0.3l1.4,0.2l1.4,0.3l1.4,0.3l1.4,0.2l1.4,0.2l1.4,0.2l1.4,0.2
			l1.4,0.3l1.4,0.3l1.4,0.2l1.4,0.3l1.4,0.2l1.4,0.3l1.4,0.2l1.4,0.3l1.4,0.2l1.4,0.2l1.4,0.3l1.4,0.2l1.4,0.3l1.4,0.2l1.4,0.2
			l1.4,0.3l1.4,0.2l1.4,0.3l1.4,0.2l1.4,0.3l1.4,0.2l1.4,0.3l1.4,0.3l1.4,0.2l1.4,0.2l1.4,0.2l1.4,0.2l1.4,0.3l1.4,0.3l1.4,0.2
			l1.4,0.3l1.4,0.2l1.4,0.3l1.4,0.2l1.4,0.3l1.4,0.2l1.4,0.2l1.4,0.3l1.4,0.2l1.4,0.3l1.4,0.2l1.4,0.2l1.4,0.3l1.4,0.3l1.4,0.2
			l1.4,0.2l1.4,0.3l1.4,0.2l1.4,0.3l1.4,0.3l1.4,0.2l1.4,0.2l1.4,0.2l1.4,0.2l1.4,0.3l1.4,0.3l1.4,0.2l1.4,0.3l1.4,0.2l1.4,0.3
			l1.4,0.2l1.4,0.3l1.4,0.2l1.4,0.2l1.4,0.3l1.4,0.2l1.4,0.3l1.4,0.2l1.4,0.2l1.4,0.3l1.4,0.2l1.4,0.3l1.4,0.2l1.4,0.3l1.4,0.2
			l1.4,0.3l1.4,0.3l1.4,0.2l1.4,0.2l1.4,0.2l1.4,0.2l1.4,0.3l1.4,0.3l1.4,0.2l1.4,0.3l1.4,0.2l1.4,0.3l1.4,0.2l1.4,0.3l1.4,0.2
			l1.4,0.2l1.4,0.3l1.4,0.2l1.4,0.3l1.4,0.2l1.4,0.2l1.4,0.3l1.4,0.2l1.4,0.3l1.4,0.2l1.4,0.3l1.4,0.2l1.4,0.3l1.4,0.3l1.4,0.2
			l1.4,0.2l1.4,0.2l1.4,0.2l1.4,0.3l1.4,0.3l1.4,0.2l1.4,0.3l1.4,0.2l1.4,0.3l1.4,0.2l1.4,0.3l1.4,0.2l1.4,0.2l1.4,0.3l1.4,0.2
			l1.4,0.3l1.4,0.2l1.4,0.2l1.4,0.3l1.4,0.2l1.4,0.3l1.4,0.2l1.4,0.3l1.4,0.2l1.4,0.3l1.4,0.3l1.4,0.2l1.4,0.2l1.4,0.2l1.4,0.2
			l1.4,0.3l1.4,0.3l1.4,0.2l1.4,0.3l1.4,0.2l1.4,0.3l1.4,0.2l1.4,0.3l1.4,0.2l1.4,0.2l1.4,0.3l1.4,0.2l1.4,0.3l1.4,0.2l1.4,0.2
			l1.4,0.3l1.4,0.2l1.4,0.3l1.4,0.2l1.4,0.3l1.4,0.2l1.4,0.3l1.4,0.3l1.4,0.2l1.4,0.2l1.4,0.2l1.4,0.2l1.4,0.3l1.4,0.3l1.4,0.2
			l1.4,0.3l1.4,0.2l1.4,0.3l1.4,0.2"/>
		<path class="st6" d="M523.8,312l1.4-0.2l1.4-0.3l1.4-0.2l1.4-0.3l1.4-0.2l1.4-0.3l1.4-0.3l1.4-0.2l1.4-0.2l1.4-0.2l1.4-0.2
			l1.4-0.3l1.4-0.3l1.4-0.2l1.4-0.3l1.4-0.2l1.4-0.3l1.4-0.2l1.4-0.3l1.4-0.2l1.4-0.2l1.4-0.3l1.4-0.2l1.4-0.3l1.4-0.2l1.4-0.2
			l1.4-0.3l1.4-0.2l1.4-0.3l1.4-0.2l1.4-0.3l1.4-0.2l1.4-0.3l1.4-0.3l1.4-0.2l1.4-0.2l1.4-0.2l1.4-0.2l1.4-0.3l1.4-0.3l1.4-0.2
			l1.4-0.3l1.4-0.2l1.4-0.3l1.4-0.2l1.4-0.3l1.4-0.2l1.4-0.2l1.4-0.3l1.4-0.2l1.4-0.3l1.4-0.2l1.4-0.2l1.4-0.3l1.4-0.2l1.4-0.3
			l1.4-0.2l1.4-0.3l1.4-0.2l1.4-0.3l1.4-0.3l1.4-0.2l1.4-0.2l1.4-0.2l1.4-0.2l1.4-0.3l1.4-0.3l1.4-0.2l1.4-0.3l1.4-0.2l1.4-0.3
			l1.4-0.2l1.4-0.3l1.4-0.2l1.4-0.2l1.4-0.3l1.4-0.2l1.4-0.3l1.4-0.2l1.4-0.2l1.4-0.3l1.4-0.2l1.4-0.3l1.4-0.2l1.4-0.3l1.4-0.2
			l1.4-0.3l1.4-0.3l1.4-0.2l1.4-0.2l1.4-0.2l1.4-0.2l1.4-0.3l1.4-0.3l1.4-0.2l1.4-0.3l1.4-0.2l1.4-0.3l1.4-0.2l1.4-0.3l1.4-0.2
			l1.4-0.2l1.4-0.3l1.4-0.2l1.4-0.3l1.4-0.2l1.4-0.2l1.4-0.3l1.4-0.2l1.4-0.3l1.4-0.2l1.4-0.3l1.4-0.2l1.4-0.3l1.4-0.3l1.4-0.2
			l1.4-0.2l1.4-0.2l1.4-0.2l1.4-0.3l1.4-0.3l1.4-0.2l1.4-0.3l1.4-0.2l1.4-0.2l1.4-0.3l1.4-0.3l1.4-0.2l1.4-0.2l1.4-0.3l1.4-0.2
			l1.4-0.3l1.4-0.2l1.4-0.2l1.4-0.3l1.4-0.2l1.4-0.3l1.4-0.2l1.4-0.3l1.4-0.2l1.4-0.3l1.4-0.3l1.4-0.2l1.4-0.2l1.4-0.2l1.4-0.2
			l1.4-0.3l1.4-0.3l1.4-0.2l1.4-0.3l1.4-0.2l1.4-0.3l1.4-0.2l1.4-0.3l1.4-0.2l1.4-0.2l1.4-0.3l1.4-0.2l1.4-0.3l1.4-0.2l1.4-0.2
			l1.4-0.3l1.4-0.2l1.4-0.3l1.4-0.2l1.4-0.3l1.4-0.2l1.4-0.3l1.4-0.3l1.4-0.2l1.4-0.2l1.4-0.2l1.4-0.2l1.4-0.3l1.4-0.3l1.4-0.2
			l1.4-0.3l1.4-0.2l1.4-0.3l1.4-0.2"/>
		<path class="st5" d="M499,380.5h297v-55H499V380.5z"/>
		<path class="st6" d="M523.8,375.9l1.4-2.5l1.4-2.5l1.4-2.5l1.4-2.5l1.4-2.5l1.4-2.5l1.4-2.5l1.4-2.5l1.4-2.5l1.4-2.5l1.4-2.5
			l1.4-2.5l1.4-2.5l1.4-2.5l1.4-2.5l1.4-2.5l1.4-2.5l1.4-2.5l1.4,2.5l1.4,2.5l1.4,2.5l1.4,2.5l1.4,2.5l1.4,2.5l1.4,2.5l1.4,2.5
			l1.4,2.5l1.4,2.5l1.4,2.5l1.4,2.5l1.4,2.5l1.4,2.5l1.4,2.5l1.4,2.5l1.4,2.5l1.4,2.5h1.4h1.4h1.4h1.4h1.4h1.4h1.4h1.4h1.4h1.4h1.4
			h1.4h1.4h1.4h1.4h1.4h1.4h1.4h1.4h1.4h1.4h1.4h1.4h1.4h1.4h1.4h1.4h1.4h1.4h1.4h1.4h1.4h1.4h1.4h1.4h1.4h1.4h1.4h1.4h1.4h1.4h1.4
			h1.4h1.4h1.4h1.4h1.4h1.4h1.4h1.4h1.4h1.4h1.4h1.4h1.4h1.4h1.4h1.4h1.4h1.4h1.4h1.4h1.4h1.4h1.4h1.4h1.4h1.4h1.4h1.4h1.4h1.4h1.4
			h1.4h1.4h1.4h1.4h1.4h1.4h1.4h1.4h1.4h1.4h1.4h1.4h1.4h1.4h1.4h1.4h1.4h1.4h1.4h1.4h1.4h1.4h1.4h1.4h1.4h1.4h1.4h1.4h1.4h1.4h1.4
			h1.4h1.4h1.4h1.4h1.4h1.4h1.4h1.4h1.4h1.4h1.4h1.4h1.4h1.4h1.4h1.4h1.4h1.4h1.4h1.4h1.4h1.4h1.4h1.4h1.4h1.4h1.4h1.4h1.4h1.4h1.4
			h1.4h1.4h1.4h1.4h1.4h1.4h1.4h1.4h1.4"/>
		<path class="st6" d="M523.8,330.1h1.4h1.4h1.4h1.4h1.4h1.4h1.4h1.4h1.4h1.4h1.4h1.4h1.4h1.4h1.4h1.4h1.4h1.4h1.4h1.4h1.4h1.4h1.4
			h1.4h1.4h1.4h1.4h1.4h1.4h1.4h1.4h1.4h1.4h1.4h1.4h1.4l1.4,0.6l1.4,0.6l1.4,0.6l1.4,0.6l1.4,0.6l1.4,0.6l1.4,0.6l1.4,0.6l1.4,0.6
			l1.4,0.6l1.4,0.6l1.4,0.6l1.4,0.6l1.4,0.6l1.4,0.6l1.4,0.6l1.4,0.6l1.4,0.6l1.4,0.6l1.4,0.6l1.4,0.6l1.4,0.6l1.4,0.6l1.4,0.6
			l1.4,0.6l1.4,0.6l1.4,0.6l1.4,0.6l1.4,0.6l1.4,0.6l1.4,0.6l1.4,0.6l1.4,0.6l1.4,0.6l1.4,0.6l1.4,0.6l1.4,0.6l1.4,0.6l1.4,0.6
			l1.4,0.6l1.4,0.6l1.4,0.6l1.4,0.6l1.4,0.6l1.4,0.6l1.4,0.6l1.4,0.6l1.4,0.6l1.4,0.6l1.4,0.6l1.4,0.6l1.4,0.6l1.4,0.6l1.4,0.6
			l1.4,0.6l1.4,0.6l1.4,0.6l1.4,0.6l1.4,0.6l1.4,0.6l1.4,0.6l1.4,0.6l1.4,0.6l1.4,0.6l1.4,0.6l1.4,0.6l1.4,0.6l1.4,0.6l1.4,0.6
			l1.4,0.6l1.4,0.6l1.4,0.6h1.4h1.4h1.4h1.4h1.4h1.4h1.4h1.4h1.4h1.4h1.4h1.4h1.4h1.4h1.4h1.4h1.4h1.4h1.4h1.4h1.4h1.4h1.4h1.4h1.4
			h1.4h1.4h1.4h1.4h1.4h1.4h1.4h1.4h1.4h1.4h1.4h1.4h1.4h1.4h1.4h1.4h1.4h1.4h1.4h1.4h1.4h1.4h1.4h1.4h1.4h1.4h1.4h1.4h1.4h1.4h1.4
			h1.4h1.4h1.4h1.4h1.4h1.4h1.4h1.4h1.4h1.4h1.4h1.4h1.4h1.4h1.4h1.4"/>
		<path class="st6" d="M523.8,375.9h1.4h1.4h1.4h1.4h1.4h1.4h1.4h1.4h1.4h1.4h1.4h1.4h1.4h1.4h1.4h1.4h1.4h1.4h1.4h1.4h1.4h1.4h1.4
			h1.4h1.4h1.4h1.4h1.4h1.4h1.4h1.4h1.4h1.4h1.4h1.4h1.4l1.4-0.6l1.4-0.6l1.4-0.6l1.4-0.6l1.4-0.6l1.4-0.6l1.4-0.6l1.4-0.6l1.4-0.6
			l1.4-0.6l1.4-0.6l1.4-0.6l1.4-0.6l1.4-0.6l1.4-0.6l1.4-0.6l1.4-0.6l1.4-0.6l1.4-0.6l1.4-0.6l1.4-0.6l1.4-0.6l1.4-0.6l1.4-0.6
			l1.4-0.6l1.4-0.6l1.4-0.6l1.4-0.6l1.4-0.6l1.4-0.6l1.4-0.6l1.4-0.6l1.4-0.6l1.4-0.6l1.4-0.6l1.4-0.6l1.4-0.6l1.4-0.6l1.4-0.6
			l1.4-0.6l1.4-0.6l1.4-0.6l1.4-0.6l1.4-0.6l1.4-0.6l1.4-0.6l1.4-0.6l1.4-0.6l1.4-0.6l1.4-0.6l1.4-0.6l1.4-0.6l1.4-0.6l1.4-0.6
			l1.4-0.6l1.4-0.6l1.4-0.6l1.4-0.6l1.4-0.6l1.4-0.6l1.4-0.6l1.4-0.6l1.4-0.6l1.4-0.6l1.4-0.6l1.4-0.6l1.4-0.6l1.4-0.6l1.4-0.6
			l1.4-0.6l1.4-0.6l1.4-0.6h1.4h1.4h1.4h1.4h1.4h1.4h1.4h1.4h1.4h1.4h1.4h1.4h1.4h1.4h1.4h1.4h1.4h1.4h1.4h1.4h1.4h1.4h1.4h1.4h1.4
			h1.4h1.4h1.4h1.4h1.4h1.4h1.4h1.4h1.4h1.4h1.4h1.4h1.4h1.4h1.4h1.4h1.4h1.4h1.4h1.4h1.4h1.4h1.4h1.4h1.4h1.4h1.4h1.4h1.4h1.4h1.4
			h1.4h1.4h1.4h1.4h1.4h1.4h1.4h1.4h1.4h1.4h1.4h1.4h1.4h1.4h1.4h1.4"/>
		<path class="st5" d="M499,444h297v-54H499V444z"/>
		<path class="st6" d="M523.8,394.5l1.4,0.2l1.4,0.3l1.4,0.2l1.4,0.2l1.4,0.3l1.4,0.2l1.4,0.3l1.4,0.2l1.4,0.3l1.4,0.3l1.4,0.2
			l1.4,0.3l1.4,0.2l1.4,0.3l1.4,0.2l1.4,0.2l1.4,0.3l1.4,0.2l1.4,0.3l1.4,0.2l1.4,0.3l1.4,0.2l1.4,0.3l1.4,0.2l1.4,0.3l1.4,0.2
			l1.4,0.3l1.4,0.2l1.4,0.3l1.4,0.2l1.4,0.2l1.4,0.3l1.4,0.2l1.4,0.3l1.4,0.2l1.4,0.3l1.4,0.3l1.4,0.2l1.4,0.3l1.4,0.2l1.4,0.3
			l1.4,0.2l1.4,0.2l1.4,0.3l1.4,0.2l1.4,0.3l1.4,0.2l1.4,0.3l1.4,0.2l1.4,0.3l1.4,0.2l1.4,0.3l1.4,0.2l1.4,0.3l1.4,0.2l1.4,0.3
			l1.4,0.2l1.4,0.2l1.4,0.3l1.4,0.2l1.4,0.3l1.4,0.2l1.4,0.3l1.4,0.2l1.4,0.3l1.4,0.3l1.4,0.2l1.4,0.3l1.4,0.2l1.4,0.2l1.4,0.3
			l1.4,0.2l1.4,0.3l1.4,0.2l1.4,0.3l1.4,0.2l1.4,0.3l1.4,0.2l1.4,0.3l1.4,0.2l1.4,0.3l1.4,0.2l1.4,0.3l1.4,0.2l1.4,0.2l1.4,0.3
			l1.4,0.2l1.4,0.3l1.4,0.2l1.4,0.3l1.4,0.3l1.4,0.2l1.4,0.3l1.4,0.2l1.4,0.3l1.4,0.2l1.4,0.2l1.4,0.3l1.4,0.2l1.4,0.3l1.4,0.2
			l1.4,0.3l1.4,0.2l1.4,0.3l1.4,0.2l1.4,0.3l1.4,0.2l1.4,0.3l1.4,0.2l1.4,0.3l1.4,0.2l1.4,0.2l1.4,0.3l1.4,0.2l1.4,0.3l1.4,0.2
			l1.4,0.3l1.4,0.3l1.4,0.2l1.4,0.3l1.4,0.2l1.4,0.3l1.4,0.2l1.4,0.2l1.4,0.3l1.4,0.2l1.4,0.3l1.4,0.2l1.4,0.3l1.4,0.2l1.4,0.3
			l1.4,0.2l1.4,0.3l1.4,0.2l1.4,0.3l1.4,0.2l1.4,0.3l1.4,0.2l1.4,0.2l1.4,0.3l1.4,0.2l1.4,0.3l1.4,0.2l1.4,0.3l1.4,0.3l1.4,0.2
			l1.4,0.3l1.4,0.2l1.4,0.3l1.4,0.2l1.4,0.2l1.4,0.3l1.4,0.2l1.4,0.3l1.4,0.2l1.4,0.3l1.4,0.2l1.4,0.3l1.4,0.2l1.4,0.3l1.4,0.2
			l1.4,0.3l1.4,0.2l1.4,0.3l1.4,0.2l1.4,0.2l1.4,0.3l1.4,0.2l1.4,0.3l1.4,0.2l1.4,0.3l1.4,0.3l1.4,0.2l1.4,0.3l1.4,0.2l1.4,0.3
			l1.4,0.2l1.4,0.2l1.4,0.3l1.4,0.2"/>
		<path class="st6" d="M523.8,439.5l1.4-0.2l1.4-0.3l1.4-0.2l1.4-0.2l1.4-0.3l1.4-0.2l1.4-0.3l1.4-0.2l1.4-0.3l1.4-0.3l1.4-0.2
			l1.4-0.3l1.4-0.2l1.4-0.3l1.4-0.2l1.4-0.2l1.4-0.3l1.4-0.2l1.4-0.3l1.4-0.2l1.4-0.3l1.4-0.2l1.4-0.3l1.4-0.2l1.4-0.3l1.4-0.2
			l1.4-0.3l1.4-0.2l1.4-0.3l1.4-0.2l1.4-0.2l1.4-0.3l1.4-0.2l1.4-0.3l1.4-0.2l1.4-0.3l1.4-0.3l1.4-0.2l1.4-0.3l1.4-0.2l1.4-0.3
			l1.4-0.2l1.4-0.2l1.4-0.3l1.4-0.2l1.4-0.3l1.4-0.2l1.4-0.3l1.4-0.2l1.4-0.3l1.4-0.2l1.4-0.3l1.4-0.2l1.4-0.3l1.4-0.2l1.4-0.3
			l1.4-0.2l1.4-0.2l1.4-0.3l1.4-0.2l1.4-0.3l1.4-0.2l1.4-0.3l1.4-0.3l1.4-0.2l1.4-0.3l1.4-0.2l1.4-0.3l1.4-0.2l1.4-0.2l1.4-0.3
			l1.4-0.2l1.4-0.3l1.4-0.2l1.4-0.3l1.4-0.2l1.4-0.3l1.4-0.2l1.4-0.3l1.4-0.2l1.4-0.3l1.4-0.2l1.4-0.3l1.4-0.2l1.4-0.2l1.4-0.3
			l1.4-0.2l1.4-0.3l1.4-0.2l1.4-0.3l1.4-0.3l1.4-0.2l1.4-0.3l1.4-0.2l1.4-0.3l1.4-0.2l1.4-0.2l1.4-0.3l1.4-0.2l1.4-0.3l1.4-0.2
			l1.4-0.3l1.4-0.2l1.4-0.3l1.4-0.2l1.4-0.3l1.4-0.2l1.4-0.3l1.4-0.2l1.4-0.3l1.4-0.2l1.4-0.2l1.4-0.3l1.4-0.2l1.4-0.3l1.4-0.3
			l1.4-0.2l1.4-0.3l1.4-0.2l1.4-0.3l1.4-0.2l1.4-0.3l1.4-0.2l1.4-0.2l1.4-0.3l1.4-0.2l1.4-0.3l1.4-0.2l1.4-0.3l1.4-0.2l1.4-0.3
			l1.4-0.2l1.4-0.3l1.4-0.2l1.4-0.3l1.4-0.2l1.4-0.3l1.4-0.2l1.4-0.2l1.4-0.3l1.4-0.2l1.4-0.3l1.4-0.2l1.4-0.3l1.4-0.3l1.4-0.2
			l1.4-0.3l1.4-0.2l1.4-0.3l1.4-0.2l1.4-0.2l1.4-0.3l1.4-0.2l1.4-0.3l1.4-0.2l1.4-0.3l1.4-0.2l1.4-0.3l1.4-0.2l1.4-0.3l1.4-0.2
			l1.4-0.3l1.4-0.2l1.4-0.3l1.4-0.2l1.4-0.2l1.4-0.3l1.4-0.2l1.4-0.3l1.4-0.2l1.4-0.3l1.4-0.3l1.4-0.2l1.4-0.3l1.4-0.2l1.4-0.3
			l1.4-0.2l1.4-0.2l1.4-0.3l1.4-0.2"/>
		<path class="st5" d="M499,507h297v-54H499V507z"/>
		<path class="st6" d="M523.8,457.5l1.4,0.2l1.4,0.3l1.4,0.2l1.4,0.2l1.4,0.3l1.4,0.2l1.4,0.3l1.4,0.2l1.4,0.3l1.4,0.3l1.4,0.2
			l1.4,0.3l1.4,0.2l1.4,0.3l1.4,0.2l1.4,0.2l1.4,0.3l1.4,0.2l1.4,0.3l1.4,0.2l1.4,0.3l1.4,0.2l1.4,0.3l1.4,0.2l1.4,0.3l1.4,0.2
			l1.4,0.3l1.4,0.2l1.4,0.3l1.4,0.2l1.4,0.2l1.4,0.3l1.4,0.2l1.4,0.3l1.4,0.2l1.4,0.3l1.4,0.3l1.4,0.2l1.4,0.3l1.4,0.2l1.4,0.3
			l1.4,0.2l1.4,0.2l1.4,0.3l1.4,0.2l1.4,0.3l1.4,0.2l1.4,0.3l1.4,0.2l1.4,0.3l1.4,0.2l1.4,0.3l1.4,0.2l1.4,0.3l1.4,0.2l1.4,0.3
			l1.4,0.2l1.4,0.2l1.4,0.3l1.4,0.2l1.4,0.3l1.4,0.2l1.4,0.3l1.4,0.2l1.4,0.3l1.4,0.3l1.4,0.2l1.4,0.3l1.4,0.2l1.4,0.2l1.4,0.3
			l1.4,0.2l1.4,0.3l1.4,0.2l1.4,0.3l1.4,0.2l1.4,0.3l1.4,0.2l1.4,0.3l1.4,0.2l1.4,0.3l1.4,0.2l1.4,0.3l1.4,0.2l1.4,0.2l1.4,0.3
			l1.4,0.2l1.4,0.3l1.4,0.2l1.4,0.3l1.4,0.3l1.4,0.2l1.4,0.3l1.4,0.2l1.4,0.3l1.4,0.2l1.4,0.2l1.4,0.3l1.4,0.2l1.4,0.3l1.4,0.2
			l1.4,0.3l1.4,0.2l1.4,0.3l1.4,0.2l1.4,0.3l1.4,0.2l1.4,0.3l1.4,0.2l1.4,0.3l1.4,0.2l1.4,0.2l1.4,0.3l1.4,0.2l1.4,0.3l1.4,0.2
			l1.4,0.3l1.4,0.3l1.4,0.2l1.4,0.3l1.4,0.2l1.4,0.3l1.4,0.2l1.4,0.2l1.4,0.3l1.4,0.2l1.4,0.3l1.4,0.2l1.4,0.3l1.4,0.2l1.4,0.3
			l1.4,0.2l1.4,0.3l1.4,0.2l1.4,0.3l1.4,0.2l1.4,0.3l1.4,0.2l1.4,0.2l1.4,0.3l1.4,0.2l1.4,0.3l1.4,0.2l1.4,0.3l1.4,0.3l1.4,0.2
			l1.4,0.3l1.4,0.2l1.4,0.3l1.4,0.2l1.4,0.2l1.4,0.3l1.4,0.2l1.4,0.3l1.4,0.2l1.4,0.3l1.4,0.2l1.4,0.3l1.4,0.2l1.4,0.3l1.4,0.2
			l1.4,0.3l1.4,0.2l1.4,0.3l1.4,0.2l1.4,0.2l1.4,0.3l1.4,0.2l1.4,0.3l1.4,0.2l1.4,0.3l1.4,0.3l1.4,0.2l1.4,0.3l1.4,0.2l1.4,0.3
			l1.4,0.2l1.4,0.2l1.4,0.3l1.4,0.2"/>
		<path class="st6" d="M523.8,502.5l1.4-0.2l1.4-0.3l1.4-0.2l1.4-0.2l1.4-0.3l1.4-0.2l1.4-0.3l1.4-0.2l1.4-0.3l1.4-0.3l1.4-0.2
			l1.4-0.3l1.4-0.2l1.4-0.3l1.4-0.2l1.4-0.2l1.4-0.3l1.4-0.2l1.4-0.3l1.4-0.2l1.4-0.3l1.4-0.2l1.4-0.3l1.4-0.2l1.4-0.3l1.4-0.2
			l1.4-0.3l1.4-0.2l1.4-0.3l1.4-0.2l1.4-0.2l1.4-0.3l1.4-0.2l1.4-0.3l1.4-0.2l1.4-0.3l1.4-0.3l1.4-0.2l1.4-0.3l1.4-0.2l1.4-0.3
			l1.4-0.2l1.4-0.2l1.4-0.3l1.4-0.2l1.4-0.3l1.4-0.2l1.4-0.3l1.4-0.2l1.4-0.3l1.4-0.2l1.4-0.3l1.4-0.2l1.4-0.3l1.4-0.2l1.4-0.3
			l1.4-0.2l1.4-0.2l1.4-0.3l1.4-0.2l1.4-0.3l1.4-0.2l1.4-0.3l1.4-0.3l1.4-0.2l1.4-0.3l1.4-0.2l1.4-0.3l1.4-0.2l1.4-0.2l1.4-0.3
			l1.4-0.2l1.4-0.3l1.4-0.2l1.4-0.3l1.4-0.2l1.4-0.3l1.4-0.2l1.4-0.3l1.4-0.2l1.4-0.3l1.4-0.2l1.4-0.3l1.4-0.2l1.4-0.2l1.4-0.3
			l1.4-0.2l1.4-0.3l1.4-0.2l1.4-0.3l1.4-0.3l1.4-0.2l1.4-0.3l1.4-0.2l1.4-0.3l1.4-0.2l1.4-0.2l1.4-0.3l1.4-0.2l1.4-0.3l1.4-0.2
			l1.4-0.3l1.4-0.2l1.4-0.3l1.4-0.2l1.4-0.3l1.4-0.2l1.4-0.3l1.4-0.2l1.4-0.3l1.4-0.2l1.4-0.2l1.4-0.3l1.4-0.2l1.4-0.3l1.4-0.3
			l1.4-0.2l1.4-0.3l1.4-0.2l1.4-0.3l1.4-0.2l1.4-0.3l1.4-0.2l1.4-0.2l1.4-0.3l1.4-0.2l1.4-0.3l1.4-0.2l1.4-0.3l1.4-0.2l1.4-0.3
			l1.4-0.2l1.4-0.3l1.4-0.2l1.4-0.3l1.4-0.2l1.4-0.3l1.4-0.2l1.4-0.2l1.4-0.3l1.4-0.2l1.4-0.3l1.4-0.2l1.4-0.3l1.4-0.3l1.4-0.2
			l1.4-0.3l1.4-0.2l1.4-0.3l1.4-0.2l1.4-0.2l1.4-0.3l1.4-0.2l1.4-0.3l1.4-0.2l1.4-0.3l1.4-0.2l1.4-0.3l1.4-0.2l1.4-0.3l1.4-0.2
			l1.4-0.3l1.4-0.2l1.4-0.3l1.4-0.2l1.4-0.2l1.4-0.3l1.4-0.2l1.4-0.3l1.4-0.2l1.4-0.3l1.4-0.3l1.4-0.2l1.4-0.3l1.4-0.2l1.4-0.3
			l1.4-0.2l1.4-0.2l1.4-0.3l1.4-0.2"/>
		<path class="st5" d="M499,571h297v-54H499V571z"/>
		<path class="st6" d="M523.8,566.5l1.4-2l1.4-2l1.4-2l1.4-2l1.4-2l1.4-2l1.4-2l1.4-2l1.4-2l1.4-2l1.4-2l1.4-2l1.4-2l1.4-2l1.4-2
			l1.4-2l1.4-2l1.4-2l1.4-2l1.4-2l1.4-2l1.4-2h1.4l1.4,2l1.4,2l1.4,2l1.4,2l1.4,2l1.4,2l1.4,2l1.4,2l1.4,2l1.4,2l1.4,2l1.4,2l1.4,2
			l1.4,2l1.4,2l1.4,2l1.4,2l1.4,2l1.4,2l1.4,2l1.4,2l1.4,2h1.4h1.4h1.4h1.4h1.4h1.4h1.4h1.4h1.4h1.4h1.4h1.4h1.4h1.4h1.4h1.4h1.4
			h1.4h1.4h1.4h1.4h1.4h1.4h1.4h1.4h1.4h1.4h1.4h1.4h1.4h1.4h1.4h1.4h1.4h1.4h1.4h1.4h1.4h1.4h1.4h1.4h1.4h1.4h1.4h1.4h1.4h1.4h1.4
			h1.4h1.4h1.4h1.4h1.4h1.4h1.4h1.4h1.4h1.4h1.4h1.4h1.4h1.4h1.4h1.4h1.4h1.4h1.4h1.4h1.4h1.4h1.4h1.4h1.4h1.4h1.4h1.4h1.4h1.4h1.4
			h1.4h1.4h1.4h1.4h1.4h1.4h1.4h1.4h1.4h1.4h1.4h1.4h1.4h1.4h1.4h1.4h1.4h1.4h1.4h1.4h1.4h1.4h1.4h1.4h1.4h1.4h1.4h1.4h1.4h1.4h1.4
			h1.4h1.4h1.4h1.4h1.4h1.4h1.4h1.4h1.4h1.4h1.4h1.4h1.4h1.4h1.4h1.4h1.4h1.4h1.4h1.4h1.4h1.4h1.4h1.4h1.4"/>
		<path class="st6" d="M523.8,521.5h1.4h1.4h1.4h1.4h1.4h1.4h1.4h1.4h1.4h1.4h1.4h1.4h1.4h1.4h1.4h1.4h1.4h1.4h1.4h1.4h1.4h1.4h1.4
			h1.4h1.4h1.4h1.4h1.4h1.4h1.4h1.4h1.4h1.4h1.4h1.4h1.4h1.4h1.4h1.4h1.4h1.4h1.4h1.4h1.4h1.4l1.4,0.4l1.4,0.4l1.4,0.4l1.4,0.4
			l1.4,0.4l1.4,0.4l1.4,0.4l1.4,0.4l1.4,0.4l1.4,0.4l1.4,0.4l1.4,0.4l1.4,0.4l1.4,0.4l1.4,0.4l1.4,0.4l1.4,0.4l1.4,0.4l1.4,0.4
			l1.4,0.4l1.4,0.4l1.4,0.4l1.4,0.4l1.4,0.4l1.4,0.4l1.4,0.4l1.4,0.4l1.4,0.4l1.4,0.4l1.4,0.4l1.4,0.4l1.4,0.4l1.4,0.4l1.4,0.4
			l1.4,0.4l1.4,0.4l1.4,0.4l1.4,0.4l1.4,0.4l1.4,0.4l1.4,0.4l1.4,0.4l1.4,0.4l1.4,0.4l1.4,0.4l1.4,0.4l1.4,0.4l1.4,0.4l1.4,0.4
			l1.4,0.4l1.4,0.4l1.4,0.4l1.4,0.4l1.4,0.4l1.4,0.4l1.4,0.4l1.4,0.4l1.4,0.4l1.4,0.4l1.4,0.4l1.4,0.4l1.4,0.4l1.4,0.4l1.4,0.4
			l1.4,0.4l1.4,0.4l1.4,0.4l1.4,0.4l1.4,0.4l1.4,0.4l1.4,0.4l1.4,0.4l1.4,0.4l1.4,0.4l1.4,0.4l1.4,0.4l1.4,0.4l1.4,0.4l1.4,0.4
			l1.4,0.4l1.4,0.4l1.4,0.4l1.4,0.4l1.4,0.4l1.4,0.4l1.4,0.4l1.4,0.4l1.4,0.4l1.4,0.4l1.4,0.4l1.4,0.4l1.4,0.4l1.4,0.4l1.4,0.4
			l1.4,0.4l1.4,0.4l1.4,0.4l1.4,0.4l1.4,0.4l1.4,0.4l1.4,0.4l1.4,0.4l1.4,0.4l1.4,0.4l1.4,0.4l1.4,0.4l1.4,0.4l1.4,0.4l1.4,0.4
			l1.4,0.4l1.4,0.4l1.4,0.4l1.4,0.2h1.4h1.4h1.4h1.4h1.4h1.4h1.4h1.4h1.4h1.4h1.4h1.4h1.4h1.4h1.4h1.4h1.4h1.4h1.4h1.4h1.4h1.4"/>
		<path class="st6" d="M523.8,566.5h1.4h1.4h1.4h1.4h1.4h1.4h1.4h1.4h1.4h1.4h1.4h1.4h1.4h1.4h1.4h1.4h1.4h1.4h1.4h1.4h1.4h1.4h1.4
			h1.4h1.4h1.4h1.4h1.4h1.4h1.4h1.4h1.4h1.4h1.4h1.4h1.4h1.4h1.4h1.4h1.4h1.4h1.4h1.4h1.4h1.4l1.4-0.4l1.4-0.4l1.4-0.4l1.4-0.4
			l1.4-0.4l1.4-0.4l1.4-0.4l1.4-0.4l1.4-0.4l1.4-0.4l1.4-0.4l1.4-0.4l1.4-0.4l1.4-0.4l1.4-0.4l1.4-0.4l1.4-0.4l1.4-0.4l1.4-0.4
			l1.4-0.4l1.4-0.4l1.4-0.4l1.4-0.4l1.4-0.4l1.4-0.4l1.4-0.4l1.4-0.4l1.4-0.4l1.4-0.4l1.4-0.4l1.4-0.4l1.4-0.4l1.4-0.4l1.4-0.4
			l1.4-0.4l1.4-0.4l1.4-0.4l1.4-0.4l1.4-0.4l1.4-0.4l1.4-0.4l1.4-0.4l1.4-0.4l1.4-0.4l1.4-0.4l1.4-0.4l1.4-0.4l1.4-0.4l1.4-0.4
			l1.4-0.4l1.4-0.4l1.4-0.4l1.4-0.4l1.4-0.4l1.4-0.4l1.4-0.4l1.4-0.4l1.4-0.4l1.4-0.4l1.4-0.4l1.4-0.4l1.4-0.4l1.4-0.4l1.4-0.4
			l1.4-0.4l1.4-0.4l1.4-0.4l1.4-0.4l1.4-0.4l1.4-0.4l1.4-0.4l1.4-0.4l1.4-0.4l1.4-0.4l1.4-0.4l1.4-0.4l1.4-0.4l1.4-0.4l1.4-0.4
			l1.4-0.4l1.4-0.4l1.4-0.4l1.4-0.4l1.4-0.4l1.4-0.4l1.4-0.4l1.4-0.4l1.4-0.4l1.4-0.4l1.4-0.4l1.4-0.4l1.4-0.4l1.4-0.4l1.4-0.4
			l1.4-0.4l1.4-0.4l1.4-0.4l1.4-0.4l1.4-0.4l1.4-0.4l1.4-0.4l1.4-0.4l1.4-0.4l1.4-0.4l1.4-0.4l1.4-0.4l1.4-0.4l1.4-0.4l1.4-0.4
			l1.4-0.4l1.4-0.4l1.4-0.4l1.4-0.2h1.4h1.4h1.4h1.4h1.4h1.4h1.4h1.4h1.4h1.4h1.4h1.4h1.4h1.4h1.4h1.4h1.4h1.4h1.4h1.4h1.4h1.4"/>
		<path class="st5" d="M499,634h297v-54H499V634z"/>
		<path class="st6" d="M523.8,584.5l1.4,0.3l1.4,0.3l1.4,0.2l1.4,0.3l1.4,0.3l1.4,0.2l1.4,0.3l1.4,0.3l1.4,0.2l1.4,0.2l1.4,0.3
			l1.4,0.3l1.4,0.2l1.4,0.2l1.4,0.3l1.4,0.2l1.4,0.3l1.4,0.2l1.4,0.3l1.4,0.2l1.4,0.3l1.4,0.2l1.4,0.3l1.4,0.3l1.4,0.3l1.4,0.2
			l1.4,0.3l1.4,0.3l1.4,0.3l1.4,0.2l1.4,0.3l1.4,0.3l1.4,0.2l1.4,0.3l1.4,0.3l1.4,0.2l1.4,0.2l1.4,0.3l1.4,0.3l1.4,0.2l1.4,0.2
			l1.4,0.3l1.4,0.2l1.4,0.3l1.4,0.2l1.4,0.3l1.4,0.2l1.4,0.3l1.4,0.2l1.4,0.3l1.4,0.3l1.4,0.3l1.4,0.2l1.4,0.3l1.4,0.3l1.4,0.3
			l1.4,0.2l1.4,0.3l1.4,0.3l1.4,0.2l1.4,0.3l1.4,0.3l1.4,0.2l1.4,0.2l1.4,0.3l1.4,0.3l1.4,0.2l1.4,0.2l1.4,0.3l1.4,0.2l1.4,0.3
			l1.4,0.2l1.4,0.3l1.4,0.2l1.4,0.3l1.4,0.2l1.4,0.3l1.4,0.3l1.4,0.3l1.4,0.2l1.4,0.3l1.4,0.3l1.4,0.3l1.4,0.2l1.4,0.3l1.4,0.3
			l1.4,0.2l1.4,0.3l1.4,0.3l1.4,0.2l1.4,0.2l1.4,0.3l1.4,0.3l1.4,0.2l1.4,0.2l1.4,0.3l1.4,0.2l1.4,0.3l1.4,0.2l1.4,0.3l1.4,0.2
			l1.4,0.3l1.4,0.2l1.4,0.3l1.4,0.3l1.4,0.3l1.4,0.2l1.4,0.3l1.4,0.3l1.4,0.3l1.4,0.2l1.4,0.3l1.4,0.3l1.4,0.2l1.4,0.3l1.4,0.3
			l1.4,0.2l1.4,0.2l1.4,0.3l1.4,0.3l1.4,0.2l1.4,0.2l1.4,0.3l1.4,0.2l1.4,0.3l1.4,0.2l1.4,0.3l1.4,0.2l1.4,0.3l1.4,0.2l1.4,0.3
			l1.4,0.3l1.4,0.3l1.4,0.2l1.4,0.3l1.4,0.3l1.4,0.3l1.4,0.2l1.4,0.3l1.4,0.3l1.4,0.2l1.4,0.3l1.4,0.3l1.4,0.2l1.4,0.2l1.4,0.3
			l1.4,0.3l1.4,0.2l1.4,0.2l1.4,0.3l1.4,0.2l1.4,0.3l1.4,0.2l1.4,0.3l1.4,0.2l1.4,0.3l1.4,0.2l1.4,0.3l1.4,0.3l1.4,0.3l1.4,0.2
			l1.4,0.3l1.4,0.3l1.4,0.3l1.4,0.2l1.4,0.3l1.4,0.3l1.4,0.2l1.4,0.3l1.4,0.3l1.4,0.2l1.4,0.2l1.4,0.3l1.4,0.3l1.4,0.2l1.4,0.2
			l1.4,0.3l1.4,0.2l1.4,0.3l1.4,0.2"/>
		<path class="st6" d="M523.8,629.5l1.4-0.2l1.4-0.3l1.4-0.2l1.4-0.3l1.4-0.2l1.4-0.2l1.4-0.3l1.4-0.3l1.4-0.2l1.4-0.2l1.4-0.3
			l1.4-0.3l1.4-0.2l1.4-0.3l1.4-0.3l1.4-0.2l1.4-0.3l1.4-0.3l1.4-0.3l1.4-0.2l1.4-0.3l1.4-0.3l1.4-0.3l1.4-0.2l1.4-0.3l1.4-0.2
			l1.4-0.3l1.4-0.2l1.4-0.3l1.4-0.2l1.4-0.3l1.4-0.2l1.4-0.2l1.4-0.3l1.4-0.3l1.4-0.2l1.4-0.2l1.4-0.3l1.4-0.3l1.4-0.2l1.4-0.3
			l1.4-0.3l1.4-0.2l1.4-0.3l1.4-0.3l1.4-0.3l1.4-0.2l1.4-0.3l1.4-0.3l1.4-0.3l1.4-0.2l1.4-0.3l1.4-0.2l1.4-0.3l1.4-0.2l1.4-0.3
			l1.4-0.2l1.4-0.3l1.4-0.2l1.4-0.2l1.4-0.3l1.4-0.3l1.4-0.2l1.4-0.2l1.4-0.3l1.4-0.3l1.4-0.2l1.4-0.3l1.4-0.3l1.4-0.2l1.4-0.3
			l1.4-0.3l1.4-0.3l1.4-0.2l1.4-0.3l1.4-0.3l1.4-0.3l1.4-0.2l1.4-0.3l1.4-0.2l1.4-0.3l1.4-0.2l1.4-0.3l1.4-0.2l1.4-0.3l1.4-0.2
			l1.4-0.2l1.4-0.3l1.4-0.3l1.4-0.2l1.4-0.2l1.4-0.3l1.4-0.3l1.4-0.2l1.4-0.3l1.4-0.3l1.4-0.2l1.4-0.3l1.4-0.3l1.4-0.3l1.4-0.2
			l1.4-0.3l1.4-0.3l1.4-0.3l1.4-0.2l1.4-0.3l1.4-0.2l1.4-0.3l1.4-0.2l1.4-0.3l1.4-0.2l1.4-0.3l1.4-0.2l1.4-0.2l1.4-0.3l1.4-0.3
			l1.4-0.2l1.4-0.2l1.4-0.3l1.4-0.3l1.4-0.2l1.4-0.3l1.4-0.3l1.4-0.2l1.4-0.3l1.4-0.3l1.4-0.3l1.4-0.2l1.4-0.3l1.4-0.3l1.4-0.3
			l1.4-0.2l1.4-0.3l1.4-0.2l1.4-0.3l1.4-0.2l1.4-0.3l1.4-0.2l1.4-0.3l1.4-0.2l1.4-0.2l1.4-0.3l1.4-0.3l1.4-0.2l1.4-0.2l1.4-0.3
			l1.4-0.3l1.4-0.2l1.4-0.3l1.4-0.3l1.4-0.2l1.4-0.3l1.4-0.3l1.4-0.3l1.4-0.2l1.4-0.3l1.4-0.3l1.4-0.3l1.4-0.2l1.4-0.3l1.4-0.2
			l1.4-0.3l1.4-0.2l1.4-0.3l1.4-0.2l1.4-0.3l1.4-0.2l1.4-0.2l1.4-0.3l1.4-0.3l1.4-0.2l1.4-0.2l1.4-0.3l1.4-0.3l1.4-0.2l1.4-0.3
			l1.4-0.3l1.4-0.2l1.4-0.3l1.4-0.3"/>
		<path class="st5" d="M499,698h297v-54H499V698z"/>
		<path class="st6" d="M523.8,693.5l1.4-2l1.4-2l1.4-2l1.4-2l1.4-2l1.4-2l1.4-2l1.4-2l1.4-2l1.4-2l1.4-2l1.4-2l1.4-2l1.4-2l1.4-2
			l1.4-2l1.4-2l1.4-2l1.4-2l1.4-2l1.4-2l1.4-2h1.4l1.4,2l1.4,2l1.4,2l1.4,2l1.4,2l1.4,2l1.4,2l1.4,2l1.4,2l1.4,2l1.4,2l1.4,2l1.4,2
			l1.4,2l1.4,2l1.4,2l1.4,2l1.4,2l1.4,2l1.4,2l1.4,2l1.4,2h1.4h1.4h1.4h1.4h1.4h1.4h1.4h1.4h1.4h1.4h1.4h1.4h1.4h1.4h1.4h1.4h1.4
			h1.4h1.4h1.4h1.4h1.4h1.4h1.4h1.4h1.4h1.4h1.4h1.4h1.4h1.4h1.4h1.4h1.4h1.4h1.4h1.4h1.4h1.4h1.4h1.4h1.4h1.4h1.4h1.4h1.4h1.4h1.4
			h1.4h1.4h1.4h1.4h1.4h1.4h1.4h1.4h1.4h1.4h1.4h1.4h1.4h1.4h1.4h1.4h1.4h1.4h1.4h1.4h1.4h1.4h1.4h1.4h1.4h1.4h1.4h1.4h1.4h1.4h1.4
			h1.4h1.4h1.4h1.4h1.4h1.4h1.4h1.4h1.4h1.4h1.4h1.4h1.4h1.4h1.4h1.4h1.4h1.4h1.4h1.4h1.4h1.4h1.4h1.4h1.4h1.4h1.4h1.4h1.4h1.4h1.4
			h1.4h1.4h1.4h1.4h1.4h1.4h1.4h1.4h1.4h1.4h1.4h1.4h1.4h1.4h1.4h1.4h1.4h1.4h1.4h1.4h1.4h1.4h1.4h1.4h1.4"/>
		<path class="st6" d="M523.8,648.5h1.4h1.4h1.4h1.4h1.4h1.4h1.4h1.4h1.4h1.4h1.4h1.4h1.4h1.4h1.4h1.4h1.4h1.4h1.4h1.4h1.4h1.4h1.4
			h1.4h1.4h1.4h1.4h1.4h1.4h1.4h1.4h1.4h1.4h1.4h1.4h1.4h1.4h1.4h1.4h1.4h1.4h1.4h1.4h1.4h1.4l1.4,0.4l1.4,0.4l1.4,0.4l1.4,0.4
			l1.4,0.4l1.4,0.4l1.4,0.4l1.4,0.4l1.4,0.4l1.4,0.4l1.4,0.4l1.4,0.4l1.4,0.4l1.4,0.4l1.4,0.4l1.4,0.4l1.4,0.4l1.4,0.4l1.4,0.4
			l1.4,0.4l1.4,0.4l1.4,0.4l1.4,0.4l1.4,0.4l1.4,0.4l1.4,0.4l1.4,0.4l1.4,0.4l1.4,0.4l1.4,0.4l1.4,0.4l1.4,0.4l1.4,0.4l1.4,0.4
			l1.4,0.4l1.4,0.4l1.4,0.4l1.4,0.4l1.4,0.4l1.4,0.4l1.4,0.4l1.4,0.4l1.4,0.4l1.4,0.4l1.4,0.4l1.4,0.4l1.4,0.4l1.4,0.4l1.4,0.4
			l1.4,0.4l1.4,0.4l1.4,0.4l1.4,0.4l1.4,0.4l1.4,0.4l1.4,0.4l1.4,0.4l1.4,0.4l1.4,0.4l1.4,0.4l1.4,0.4l1.4,0.4l1.4,0.4l1.4,0.4
			l1.4,0.4l1.4,0.4l1.4,0.4l1.4,0.4l1.4,0.4l1.4,0.4l1.4,0.4l1.4,0.4l1.4,0.4l1.4,0.4l1.4,0.4l1.4,0.4l1.4,0.4l1.4,0.4l1.4,0.4
			l1.4,0.4l1.4,0.4l1.4,0.4l1.4,0.4l1.4,0.4l1.4,0.4l1.4,0.4l1.4,0.4l1.4,0.4l1.4,0.4l1.4,0.4l1.4,0.4l1.4,0.4l1.4,0.4l1.4,0.4
			l1.4,0.4l1.4,0.4l1.4,0.4l1.4,0.4l1.4,0.4l1.4,0.4l1.4,0.4l1.4,0.4l1.4,0.4l1.4,0.4l1.4,0.4l1.4,0.4l1.4,0.4l1.4,0.4l1.4,0.4
			l1.4,0.4l1.4,0.4l1.4,0.4l1.4,0.2h1.4h1.4h1.4h1.4h1.4h1.4h1.4h1.4h1.4h1.4h1.4h1.4h1.4h1.4h1.4h1.4h1.4h1.4h1.4h1.4h1.4h1.4"/>
		<path class="st6" d="M523.8,693.5h1.4h1.4h1.4h1.4h1.4h1.4h1.4h1.4h1.4h1.4h1.4h1.4h1.4h1.4h1.4h1.4h1.4h1.4h1.4h1.4h1.4h1.4h1.4
			h1.4h1.4h1.4h1.4h1.4h1.4h1.4h1.4h1.4h1.4h1.4h1.4h1.4h1.4h1.4h1.4h1.4h1.4h1.4h1.4h1.4h1.4l1.4-0.4l1.4-0.4l1.4-0.4l1.4-0.4
			l1.4-0.4l1.4-0.4l1.4-0.4l1.4-0.4l1.4-0.4l1.4-0.4l1.4-0.4l1.4-0.4l1.4-0.4l1.4-0.4l1.4-0.4l1.4-0.4l1.4-0.4l1.4-0.4l1.4-0.4
			l1.4-0.4l1.4-0.4l1.4-0.4l1.4-0.4l1.4-0.4l1.4-0.4l1.4-0.4l1.4-0.4l1.4-0.4l1.4-0.4l1.4-0.4l1.4-0.4l1.4-0.4l1.4-0.4l1.4-0.4
			l1.4-0.4l1.4-0.4l1.4-0.4l1.4-0.4l1.4-0.4l1.4-0.4l1.4-0.4l1.4-0.4l1.4-0.4l1.4-0.4l1.4-0.4l1.4-0.4l1.4-0.4l1.4-0.4l1.4-0.4
			l1.4-0.4l1.4-0.4l1.4-0.4l1.4-0.4l1.4-0.4l1.4-0.4l1.4-0.4l1.4-0.4l1.4-0.4l1.4-0.4l1.4-0.4l1.4-0.4l1.4-0.4l1.4-0.4l1.4-0.4
			l1.4-0.4l1.4-0.4l1.4-0.4l1.4-0.4l1.4-0.4l1.4-0.4l1.4-0.4l1.4-0.4l1.4-0.4l1.4-0.4l1.4-0.4l1.4-0.4l1.4-0.4l1.4-0.4l1.4-0.4
			l1.4-0.4l1.4-0.4l1.4-0.4l1.4-0.4l1.4-0.4l1.4-0.4l1.4-0.4l1.4-0.4l1.4-0.4l1.4-0.4l1.4-0.4l1.4-0.4l1.4-0.4l1.4-0.4l1.4-0.4
			l1.4-0.4l1.4-0.4l1.4-0.4l1.4-0.4l1.4-0.4l1.4-0.4l1.4-0.4l1.4-0.4l1.4-0.4l1.4-0.4l1.4-0.4l1.4-0.4l1.4-0.4l1.4-0.4l1.4-0.4
			l1.4-0.4l1.4-0.4l1.4-0.4l1.4-0.2h1.4h1.4h1.4h1.4h1.4h1.4h1.4h1.4h1.4h1.4h1.4h1.4h1.4h1.4h1.4h1.4h1.4h1.4h1.4h1.4h1.4h1.4"/>
		<path class="st5" d="M499,761h297v-53H499V761z"/>
		<path class="st6" d="M523.8,756.6l1.4-2.5l1.4-2.5l1.4-2.5l1.4-2.5l1.4-2.5l1.4-2.5l1.4-2.5l1.4-2.5l1.4-2.5l1.4-2.5l1.4-2.5
			l1.4-2.5l1.4-2.5l1.4-2.5l1.4-2.5l1.4-2.5l1.4-2.5l1.4-2.5l1.4,2.5l1.4,2.5l1.4,2.5l1.4,2.5l1.4,2.5l1.4,2.5l1.4,2.5l1.4,2.5
			l1.4,2.5l1.4,2.5l1.4,2.5l1.4,2.5l1.4,2.5l1.4,2.5l1.4,2.5l1.4,2.5l1.4,2.5l1.4,2.5h1.4h1.4h1.4h1.4h1.4h1.4h1.4h1.4h1.4h1.4h1.4
			h1.4h1.4h1.4h1.4h1.4h1.4h1.4h1.4h1.4h1.4h1.4h1.4h1.4h1.4h1.4h1.4h1.4h1.4h1.4h1.4h1.4h1.4h1.4h1.4h1.4h1.4h1.4h1.4h1.4h1.4h1.4
			h1.4h1.4h1.4h1.4h1.4h1.4h1.4h1.4h1.4h1.4h1.4h1.4h1.4h1.4h1.4h1.4h1.4h1.4h1.4h1.4h1.4h1.4h1.4h1.4h1.4h1.4h1.4h1.4h1.4h1.4h1.4
			h1.4h1.4h1.4h1.4h1.4h1.4h1.4h1.4h1.4h1.4h1.4h1.4h1.4h1.4h1.4h1.4h1.4h1.4h1.4h1.4h1.4h1.4h1.4h1.4h1.4h1.4h1.4h1.4h1.4h1.4h1.4
			h1.4h1.4h1.4h1.4h1.4h1.4h1.4h1.4h1.4h1.4h1.4h1.4h1.4h1.4h1.4h1.4h1.4h1.4h1.4h1.4h1.4h1.4h1.4h1.4h1.4h1.4h1.4h1.4h1.4h1.4h1.4
			h1.4h1.4h1.4h1.4h1.4h1.4h1.4h1.4h1.4"/>
		<path class="st6" d="M523.8,712.4h1.4h1.4h1.4h1.4h1.4h1.4h1.4h1.4h1.4h1.4h1.4h1.4h1.4h1.4h1.4h1.4h1.4h1.4h1.4h1.4h1.4h1.4h1.4
			h1.4h1.4h1.4h1.4h1.4h1.4h1.4h1.4h1.4h1.4h1.4h1.4h1.4l1.4,1.2l1.4,1.2l1.4,1.2l1.4,1.2l1.4,1.2l1.4,1.2l1.4,1.2l1.4,1.2l1.4,1.2
			l1.4,1.2l1.4,1.2l1.4,1.2l1.4,1.2l1.4,1.2l1.4,1.2l1.4,1.2l1.4,1.2l1.4,1.2l1.4,1.2l1.4,1.2l1.4,1.2l1.4,1.2l1.4,1.2l1.4,1.2
			l1.4,1.2l1.4,1.2l1.4,1.2l1.4,1.2l1.4,1.2l1.4,1.2l1.4,1.2l1.4,1.2l1.4,1.2l1.4,1.2l1.4,1.2l1.4,1.2h1.4h1.4h1.4h1.4h1.4h1.4h1.4
			h1.4h1.4h1.4h1.4h1.4h1.4h1.4h1.4h1.4h1.4h1.4h1.4h1.4h1.4h1.4h1.4h1.4h1.4h1.4h1.4h1.4h1.4h1.4h1.4h1.4h1.4h1.4h1.4h1.4h1.4h1.4
			h1.4h1.4h1.4h1.4h1.4h1.4h1.4h1.4h1.4h1.4h1.4h1.4h1.4h1.4h1.4h1.4h1.4h1.4h1.4h1.4h1.4h1.4h1.4h1.4h1.4h1.4h1.4h1.4h1.4h1.4h1.4
			h1.4h1.4h1.4h1.4h1.4h1.4h1.4h1.4h1.4h1.4h1.4h1.4h1.4h1.4h1.4h1.4h1.4h1.4h1.4h1.4h1.4h1.4h1.4h1.4h1.4h1.4h1.4h1.4h1.4h1.4h1.4
			h1.4h1.4h1.4h1.4h1.4h1.4h1.4h1.4"/>
		<path class="st6" d="M523.8,756.6h1.4h1.4h1.4h1.4h1.4h1.4h1.4h1.4h1.4h1.4h1.4h1.4h1.4h1.4h1.4h1.4h1.4h1.4h1.4h1.4h1.4h1.4h1.4
			h1.4h1.4h1.4h1.4h1.4h1.4h1.4h1.4h1.4h1.4h1.4h1.4h1.4l1.4-1.2l1.4-1.2l1.4-1.2l1.4-1.2l1.4-1.2l1.4-1.2l1.4-1.2l1.4-1.2l1.4-1.2
			l1.4-1.2l1.4-1.2l1.4-1.2l1.4-1.2l1.4-1.2l1.4-1.2l1.4-1.2l1.4-1.2l1.4-1.2l1.4-1.2l1.4-1.2l1.4-1.2l1.4-1.2l1.4-1.2l1.4-1.2
			l1.4-1.2l1.4-1.2l1.4-1.2l1.4-1.2l1.4-1.2l1.4-1.2l1.4-1.2l1.4-1.2l1.4-1.2l1.4-1.2l1.4-1.2l1.4-1.2h1.4h1.4h1.4h1.4h1.4h1.4h1.4
			h1.4h1.4h1.4h1.4h1.4h1.4h1.4h1.4h1.4h1.4h1.4h1.4h1.4h1.4h1.4h1.4h1.4h1.4h1.4h1.4h1.4h1.4h1.4h1.4h1.4h1.4h1.4h1.4h1.4h1.4h1.4
			h1.4h1.4h1.4h1.4h1.4h1.4h1.4h1.4h1.4h1.4h1.4h1.4h1.4h1.4h1.4h1.4h1.4h1.4h1.4h1.4h1.4h1.4h1.4h1.4h1.4h1.4h1.4h1.4h1.4h1.4h1.4
			h1.4h1.4h1.4h1.4h1.4h1.4h1.4h1.4h1.4h1.4h1.4h1.4h1.4h1.4h1.4h1.4h1.4h1.4h1.4h1.4h1.4h1.4h1.4h1.4h1.4h1.4h1.4h1.4h1.4h1.4h1.4
			h1.4h1.4h1.4h1.4h1.4h1.4h1.4h1.4"/>
		<path class="st5" d="M499,825h297v-54H499V825z"/>
		<path class="st6" d="M523.8,820.5l1.4-2l1.4-2l1.4-2l1.4-2l1.4-2l1.4-2l1.4-2l1.4-2l1.4-2l1.4-2l1.4-2l1.4-2l1.4-2l1.4-2l1.4-2
			l1.4-2l1.4-2l1.4-2l1.4-2l1.4-2l1.4-2l1.4-2h1.4l1.4,2l1.4,2l1.4,2l1.4,2l1.4,2l1.4,2l1.4,2l1.4,2l1.4,2l1.4,2l1.4,2l1.4,2l1.4,2
			l1.4,2l1.4,2l1.4,2l1.4,2l1.4,2l1.4,2l1.4,2l1.4,2l1.4,2h1.4h1.4h1.4h1.4h1.4h1.4h1.4h1.4h1.4h1.4h1.4h1.4h1.4h1.4h1.4h1.4h1.4
			h1.4h1.4h1.4h1.4h1.4h1.4h1.4h1.4h1.4h1.4h1.4h1.4h1.4h1.4h1.4h1.4h1.4h1.4h1.4h1.4h1.4h1.4h1.4h1.4h1.4h1.4h1.4h1.4h1.4h1.4h1.4
			h1.4h1.4h1.4h1.4h1.4h1.4h1.4h1.4h1.4h1.4h1.4h1.4h1.4h1.4h1.4h1.4h1.4h1.4h1.4h1.4h1.4h1.4h1.4h1.4h1.4h1.4h1.4h1.4h1.4h1.4h1.4
			h1.4h1.4h1.4h1.4h1.4h1.4h1.4h1.4h1.4h1.4h1.4h1.4h1.4h1.4h1.4h1.4h1.4h1.4h1.4h1.4h1.4h1.4h1.4h1.4h1.4h1.4h1.4h1.4h1.4h1.4h1.4
			h1.4h1.4h1.4h1.4h1.4h1.4h1.4h1.4h1.4h1.4h1.4h1.4h1.4h1.4h1.4h1.4h1.4h1.4h1.4h1.4h1.4h1.4h1.4h1.4h1.4"/>
		<path class="st6" d="M523.8,775.5h1.4h1.4h1.4h1.4h1.4h1.4h1.4h1.4h1.4h1.4h1.4h1.4h1.4h1.4h1.4h1.4h1.4h1.4h1.4h1.4h1.4h1.4h1.4
			h1.4h1.4h1.4h1.4h1.4h1.4h1.4h1.4h1.4h1.4h1.4h1.4h1.4h1.4h1.4h1.4h1.4h1.4h1.4h1.4h1.4h1.4l1.4,0.4l1.4,0.4l1.4,0.4l1.4,0.4
			l1.4,0.4l1.4,0.4l1.4,0.4l1.4,0.4l1.4,0.4l1.4,0.4l1.4,0.4l1.4,0.4l1.4,0.4l1.4,0.4l1.4,0.4l1.4,0.4l1.4,0.4l1.4,0.4l1.4,0.4
			l1.4,0.4l1.4,0.4l1.4,0.4l1.4,0.4l1.4,0.4l1.4,0.4l1.4,0.4l1.4,0.4l1.4,0.4l1.4,0.4l1.4,0.4l1.4,0.4l1.4,0.4l1.4,0.4l1.4,0.4
			l1.4,0.4l1.4,0.4l1.4,0.4l1.4,0.4l1.4,0.4l1.4,0.4l1.4,0.4l1.4,0.4l1.4,0.4l1.4,0.4l1.4,0.4l1.4,0.4l1.4,0.4l1.4,0.4l1.4,0.4
			l1.4,0.4l1.4,0.4l1.4,0.4l1.4,0.4l1.4,0.4l1.4,0.4l1.4,0.4l1.4,0.4l1.4,0.4l1.4,0.4l1.4,0.4l1.4,0.4l1.4,0.4l1.4,0.4l1.4,0.4
			l1.4,0.4l1.4,0.4l1.4,0.4l1.4,0.4l1.4,0.4l1.4,0.4l1.4,0.4l1.4,0.4l1.4,0.4l1.4,0.4l1.4,0.4l1.4,0.4l1.4,0.4l1.4,0.4l1.4,0.4
			l1.4,0.4l1.4,0.4l1.4,0.4l1.4,0.4l1.4,0.4l1.4,0.4l1.4,0.4l1.4,0.4l1.4,0.4l1.4,0.4l1.4,0.4l1.4,0.4l1.4,0.4l1.4,0.4l1.4,0.4
			l1.4,0.4l1.4,0.4l1.4,0.4l1.4,0.4l1.4,0.4l1.4,0.4l1.4,0.4l1.4,0.4l1.4,0.4l1.4,0.4l1.4,0.4l1.4,0.4l1.4,0.4l1.4,0.4l1.4,0.4
			l1.4,0.4l1.4,0.4l1.4,0.4l1.4,0.2h1.4h1.4h1.4h1.4h1.4h1.4h1.4h1.4h1.4h1.4h1.4h1.4h1.4h1.4h1.4h1.4h1.4h1.4h1.4h1.4h1.4h1.4"/>
		<path class="st6" d="M523.8,820.5h1.4h1.4h1.4h1.4h1.4h1.4h1.4h1.4h1.4h1.4h1.4h1.4h1.4h1.4h1.4h1.4h1.4h1.4h1.4h1.4h1.4h1.4h1.4
			h1.4h1.4h1.4h1.4h1.4h1.4h1.4h1.4h1.4h1.4h1.4h1.4h1.4h1.4h1.4h1.4h1.4h1.4h1.4h1.4h1.4h1.4l1.4-0.4l1.4-0.4l1.4-0.4l1.4-0.4
			l1.4-0.4l1.4-0.4l1.4-0.4l1.4-0.4l1.4-0.4l1.4-0.4l1.4-0.4l1.4-0.4l1.4-0.4l1.4-0.4l1.4-0.4l1.4-0.4l1.4-0.4l1.4-0.4l1.4-0.4
			l1.4-0.4l1.4-0.4l1.4-0.4l1.4-0.4l1.4-0.4l1.4-0.4l1.4-0.4l1.4-0.4l1.4-0.4l1.4-0.4l1.4-0.4l1.4-0.4l1.4-0.4l1.4-0.4l1.4-0.4
			l1.4-0.4l1.4-0.4l1.4-0.4l1.4-0.4l1.4-0.4l1.4-0.4l1.4-0.4l1.4-0.4l1.4-0.4l1.4-0.4l1.4-0.4l1.4-0.4l1.4-0.4l1.4-0.4l1.4-0.4
			l1.4-0.4l1.4-0.4l1.4-0.4l1.4-0.4l1.4-0.4l1.4-0.4l1.4-0.4l1.4-0.4l1.4-0.4l1.4-0.4l1.4-0.4l1.4-0.4l1.4-0.4l1.4-0.4l1.4-0.4
			l1.4-0.4l1.4-0.4l1.4-0.4l1.4-0.4l1.4-0.4l1.4-0.4l1.4-0.4l1.4-0.4l1.4-0.4l1.4-0.4l1.4-0.4l1.4-0.4l1.4-0.4l1.4-0.4l1.4-0.4
			l1.4-0.4l1.4-0.4l1.4-0.4l1.4-0.4l1.4-0.4l1.4-0.4l1.4-0.4l1.4-0.4l1.4-0.4l1.4-0.4l1.4-0.4l1.4-0.4l1.4-0.4l1.4-0.4l1.4-0.4
			l1.4-0.4l1.4-0.4l1.4-0.4l1.4-0.4l1.4-0.4l1.4-0.4l1.4-0.4l1.4-0.4l1.4-0.4l1.4-0.4l1.4-0.4l1.4-0.4l1.4-0.4l1.4-0.4l1.4-0.4
			l1.4-0.4l1.4-0.4l1.4-0.4l1.4-0.2h1.4h1.4h1.4h1.4h1.4h1.4h1.4h1.4h1.4h1.4h1.4h1.4h1.4h1.4h1.4h1.4h1.4h1.4h1.4h1.4h1.4h1.4"/>
	</g>
	<path class="st7" d="M1191,201h297V92h-297V201z"/>
	<line class="st8" x1="1191" y1="201" x2="1488" y2="201"/>
	<line class="st8" x1="1191" y1="92" x2="1488" y2="92"/>
	<g>
		<text transform="matrix(1 0 0 1 1512.7501 148)" class="st1 st9">CAP (3)</text>
	</g>
	<line class="st8" x1="1191" y1="201" x2="1191" y2="92"/>
	<line class="st8" x1="1488" y1="201" x2="1488" y2="92"/>
	<path class="st10" d="M1215.8,101.1l1.4,0.5l1.4,0.5l1.4,0.5l1.4,0.5l1.4,0.5l1.4,0.5l1.4,0.5l1.4,0.5l1.4,0.5l1.4,0.5l1.4,0.5
		l1.4,0.5l1.4,0.5l1.4,0.5l1.4,0.5l1.4,0.5l1.4,0.5l1.4,0.5l1.4,0.5l1.4,0.5l1.4,0.5l1.4,0.5l1.4,0.5l1.4,0.5l1.4,0.5l1.4,0.5
		l1.4,0.5l1.4,0.5l1.4,0.5l1.4,0.5l1.4,0.5l1.4,0.5l1.4,0.5l1.4,0.5l1.4,0.5l1.4,0.5l1.4,0.5l1.4,0.5l1.4,0.5l1.4,0.5l1.4,0.5
		l1.4,0.5l1.4,0.5l1.4,0.5l1.4,0.5l1.4,0.5l1.4,0.5l1.4,0.5l1.4,0.5l1.4,0.5l1.4,0.5l1.4,0.5l1.4,0.5l1.4,0.5l1.4,0.5l1.4,0.5
		l1.4,0.5l1.4,0.5l1.4,0.5l1.4,0.5l1.4,0.5l1.4,0.5l1.4,0.5l1.4,0.5l1.4,0.5l1.4,0.5l1.4,0.5l1.4,0.5l1.4,0.5l1.4,0.5l1.4,0.5
		l1.4,0.5l1.4,0.5l1.4,0.5l1.4,0.5l1.4,0.5l1.4,0.5l1.4,0.5l1.4,0.5l1.4,0.5l1.4,0.5l1.4,0.5l1.4,0.5l1.4,0.5l1.4,0.5l1.4,0.5
		l1.4,0.5l1.4,0.5l1.4,0.5l1.4,0.5l1.4,0.5l1.4,0.5l1.4,0.5l1.4,0.5l1.4,0.5l1.4,0.5l1.4,0.5l1.4,0.5l1.4,0.5l1.4,0.5l1.4,0.5
		l1.4,0.5l1.4,0.5l1.4,0.5l1.4,0.5l1.4,0.5l1.4,0.5l1.4,0.5l1.4,0.5l1.4,0.5l1.4,0.5l1.4,0.5l1.4,0.5l1.4,0.5l1.4,0.5l1.4,0.5
		l1.4,0.5l1.4,0.5l1.4,0.5l1.4,0.5l1.4,0.5l1.4,0.5l1.4,0.5l1.4,0.5l1.4,0.5l1.4,0.5l1.4,0.5l1.4,0.5l1.4,0.5l1.4,0.5l1.4,0.5
		l1.4,0.5l1.4,0.5l1.4,0.5l1.4,0.5l1.4,0.5l1.4,0.5l1.4,0.5l1.4,0.5l1.4,0.5l1.4,0.5l1.4,0.5l1.4,0.5l1.4,0.5l1.4,0.5l1.4,0.5
		l1.4,0.5l1.4,0.5l1.4,0.5l1.4,0.5l1.4,0.5l1.4,0.5l1.4,0.5l1.4,0.5l1.4,0.5l1.4,0.5l1.4,0.5l1.4,0.5l1.4,0.5l1.4,0.5l1.4,0.5
		l1.4,0.5l1.4,0.5l1.4,0.5l1.4,0.5l1.4,0.5l1.4,0.5l1.4,0.5l1.4,0.5l1.4,0.5l1.4,0.5l1.4,0.5l1.4,0.5l1.4,0.5l1.4,0.5l1.4,0.5
		l1.4,0.5l1.4,0.5l1.4,0.5l1.4,0.5"/>
	<path class="st10" d="M1215.8,191.9h1.4h1.4h1.4h1.4h1.4h1.4h1.4h1.4h1.4h1.4h1.4h1.4h1.4h1.4h1.4h1.4h1.4h1.4l1.4-1.3l1.4-1.3
		l1.4-1.3l1.4-1.3l1.4-1.3l1.4-1.3l1.4-1.3l1.4-1.3l1.4-1.3l1.4-1.3l1.4-1.3l1.4-1.3l1.4-1.3l1.4-1.3l1.4-1.3l1.4-1.3l1.4-1.3
		l1.4-1.3l1.4-1.3l1.4-1.3l1.4-1.3l1.4-1.3l1.4-1.3l1.4-1.3l1.4-1.3l1.4-1.3l1.4-1.3l1.4-1.3l1.4-1.3l1.4-1.3l1.4-1.3l1.4-1.3
		l1.4-1.3l1.4-1.3l1.4-1.3l1.4-1.3l1.4-1.3l1.4-1.3l1.4-1.3l1.4-1.3l1.4-1.3l1.4-1.3l1.4-1.3l1.4-1.3l1.4-1.3l1.4-1.3l1.4-1.3
		l1.4-1.3l1.4-1.3l1.4-1.3l1.4-1.3l1.4-1.3l1.4-1.3l1.4-1.3l1.4-1.3l1.4-1.3l1.4-1.3l1.4-1.3l1.4-1.3l1.4-1.3l1.4-1.3l1.4-1.3
		l1.4-1.3l1.4-1.3l1.4-1.3l1.4-1.3l1.4-1.3l1.4-1.3l1.4-1.3l1.4-1.3l1.4-1.3l1.4-1.3l1.4,1.3l1.4,1.3l1.4,1.3l1.4,1.3l1.4,1.3
		l1.4,1.3l1.4,1.3l1.4,1.3l1.4,1.3l1.4,1.3l1.4,1.3l1.4,1.3l1.4,1.3l1.4,1.3l1.4,1.3l1.4,1.3l1.4,1.3l1.4,1.3l1.4,1.3l1.4,1.3
		l1.4,1.3l1.4,1.3l1.4,1.3l1.4,1.3l1.4,1.3l1.4,1.3l1.4,1.3l1.4,1.3l1.4,1.3l1.4,1.3l1.4,1.3l1.4,1.3l1.4,1.3l1.4,1.3l1.4,1.3
		l1.4,1.3l1.4,1.3l1.4,1.3l1.4,1.3l1.4,1.3l1.4,1.3l1.4,1.3l1.4,1.3l1.4,1.3l1.4,1.3l1.4,1.3l1.4,1.3l1.4,1.3l1.4,1.3l1.4,1.3
		l1.4,1.3l1.4,1.3l1.4,1.3l1.4,1.3l1.4,1.3l1.4,1.3l1.4,1.3l1.4,1.3l1.4,1.3l1.4,1.3l1.4,1.3l1.4,1.3l1.4,1.3l1.4,1.3l1.4,1.3
		l1.4,1.3l1.4,1.3l1.4,1.3l1.4,1.3l1.4,1.3l1.4,1.3l1.4,1.3h1.4h1.4h1.4h1.4h1.4h1.4h1.4h1.4h1.4h1.4h1.4h1.4h1.4h1.4h1.4h1.4h1.4
		h1.4"/>
	<path class="st10" d="M1215.8,191.9h1.4h1.4h1.4h1.4h1.4h1.4h1.4h1.4h1.4h1.4h1.4h1.4h1.4h1.4h1.4h1.4h1.4h1.4h1.4h1.4h1.4h1.4h1.4
		h1.4h1.4h1.4h1.4h1.4h1.4h1.4h1.4h1.4h1.4h1.4h1.4h1.4h1.4h1.4h1.4h1.4h1.4h1.4h1.4h1.4h1.4h1.4h1.4h1.4h1.4h1.4h1.4h1.4h1.4h1.4
		h1.4h1.4h1.4h1.4h1.4h1.4h1.4h1.4h1.4h1.4h1.4h1.4h1.4h1.4h1.4h1.4h1.4h1.4h1.4h1.4h1.4h1.4h1.4h1.4h1.4h1.4h1.4h1.4h1.4h1.4h1.4
		h1.4h1.4h1.4h1.4h1.4h1.4h1.4h1.4h1.4h1.4h1.4h1.4h1.4h1.4h1.4h1.4h1.4h1.4h1.4h1.4h1.4h1.4h1.4l1.4-1.3l1.4-1.3l1.4-1.3l1.4-1.3
		l1.4-1.3l1.4-1.3l1.4-1.3l1.4-1.3l1.4-1.3l1.4-1.3l1.4-1.3l1.4-1.3l1.4-1.3l1.4-1.3l1.4-1.3l1.4-1.3l1.4-1.3l1.4-1.3l1.4-1.3
		l1.4-1.3l1.4-1.3l1.4-1.3l1.4-1.3l1.4-1.3l1.4-1.3l1.4-1.3l1.4-1.3l1.4-1.3l1.4-1.3l1.4-1.3l1.4-1.3l1.4-1.3l1.4-1.3l1.4-1.3
		l1.4-1.3l1.4-1.3l1.4-1.3l1.4-1.3l1.4-1.3l1.4-1.3l1.4-1.3l1.4-1.3l1.4-1.3l1.4-1.3l1.4-1.3l1.4-1.3l1.4-1.3l1.4-1.3l1.4-1.3
		l1.4-1.3l1.4-1.3l1.4-1.3l1.4-1.3l1.4-1.3l1.4-1.3l1.4-1.3l1.4-1.3l1.4-1.3l1.4-1.3l1.4-1.3l1.4-1.3l1.4-1.3l1.4-1.3l1.4-1.3
		l1.4-1.3l1.4-1.3l1.4-1.3l1.4-1.3l1.4-1.3l1.4-1.3l1.4-1.3l1.4-1.3"/>
	<path class="st7" d="M1191,354h297V245h-297V354z"/>
	<line class="st8" x1="1191" y1="354" x2="1488" y2="354"/>
	<line class="st8" x1="1191" y1="245" x2="1488" y2="245"/>
	<g>
		<text transform="matrix(1 0 0 1 1512.7501 301.0001)" class="st1 st9">BLOCK (3)</text>
	</g>
	<line class="st8" x1="1191" y1="354" x2="1191" y2="245"/>
	<line class="st8" x1="1488" y1="354" x2="1488" y2="245"/>
	<path class="st10" d="M1215.8,254.1l1.4,0.5l1.4,0.5l1.4,0.5l1.4,0.5l1.4,0.5l1.4,0.5l1.4,0.5l1.4,0.5l1.4,0.5l1.4,0.5l1.4,0.5
		l1.4,0.5l1.4,0.5l1.4,0.5l1.4,0.5l1.4,0.5l1.4,0.5l1.4,0.5l1.4,0.5l1.4,0.5l1.4,0.5l1.4,0.5l1.4,0.5l1.4,0.5l1.4,0.5l1.4,0.5
		l1.4,0.5l1.4,0.5l1.4,0.5l1.4,0.5l1.4,0.5l1.4,0.5l1.4,0.5l1.4,0.5l1.4,0.5l1.4,0.5l1.4,0.5l1.4,0.5l1.4,0.5l1.4,0.5l1.4,0.5
		l1.4,0.5l1.4,0.5l1.4,0.5l1.4,0.5l1.4,0.5l1.4,0.5l1.4,0.5l1.4,0.5l1.4,0.5l1.4,0.5l1.4,0.5l1.4,0.5l1.4,0.5l1.4,0.5l1.4,0.5
		l1.4,0.5l1.4,0.5l1.4,0.5l1.4,0.5l1.4,0.5l1.4,0.5l1.4,0.5l1.4,0.5l1.4,0.5l1.4,0.5l1.4,0.5l1.4,0.5l1.4,0.5l1.4,0.5l1.4,0.5
		l1.4,0.5l1.4,0.5l1.4,0.5l1.4,0.5l1.4,0.5l1.4,0.5l1.4,0.5l1.4,0.5l1.4,0.5l1.4,0.5l1.4,0.5l1.4,0.5l1.4,0.5l1.4,0.5l1.4,0.5
		l1.4,0.5l1.4,0.5l1.4,0.5l1.4,0.5l1.4,0.5l1.4,0.5l1.4,0.5l1.4,0.5l1.4,0.5l1.4,0.5l1.4,0.5l1.4,0.5l1.4,0.5l1.4,0.5l1.4,0.5
		l1.4,0.5l1.4,0.5l1.4,0.5l1.4,0.5l1.4,0.5l1.4,0.5l1.4,0.5l1.4,0.5l1.4,0.5l1.4,0.5l1.4,0.5l1.4,0.5l1.4,0.5l1.4,0.5l1.4,0.5
		l1.4,0.5l1.4,0.5l1.4,0.5l1.4,0.5l1.4,0.5l1.4,0.5l1.4,0.5l1.4,0.5l1.4,0.5l1.4,0.5l1.4,0.5l1.4,0.5l1.4,0.5l1.4,0.5l1.4,0.5
		l1.4,0.5l1.4,0.5l1.4,0.5l1.4,0.5l1.4,0.5l1.4,0.5l1.4,0.5l1.4,0.5l1.4,0.5l1.4,0.5l1.4,0.5l1.4,0.5l1.4,0.5l1.4,0.5l1.4,0.5
		l1.4,0.5l1.4,0.5l1.4,0.5l1.4,0.5l1.4,0.5l1.4,0.5l1.4,0.5l1.4,0.5l1.4,0.5l1.4,0.5l1.4,0.5l1.4,0.5l1.4,0.5l1.4,0.5l1.4,0.5
		l1.4,0.5l1.4,0.5l1.4,0.5l1.4,0.5l1.4,0.5l1.4,0.5l1.4,0.5l1.4,0.5l1.4,0.5l1.4,0.5l1.4,0.5l1.4,0.5l1.4,0.5l1.4,0.5l1.4,0.5
		l1.4,0.5l1.4,0.5l1.4,0.5l1.4,0.5"/>
	<path class="st10" d="M1215.8,344.9h1.4h1.4h1.4h1.4h1.4h1.4h1.4h1.4h1.4h1.4h1.4h1.4h1.4h1.4h1.4h1.4h1.4h1.4l1.4-1.3l1.4-1.3
		l1.4-1.3l1.4-1.3l1.4-1.3l1.4-1.3l1.4-1.3l1.4-1.3l1.4-1.3l1.4-1.3l1.4-1.3l1.4-1.3l1.4-1.3l1.4-1.3l1.4-1.3l1.4-1.3l1.4-1.3
		l1.4-1.3l1.4-1.3l1.4-1.3l1.4-1.3l1.4-1.3l1.4-1.3l1.4-1.3l1.4-1.3l1.4-1.3l1.4-1.3l1.4-1.3l1.4-1.3l1.4-1.3l1.4-1.3l1.4-1.3
		l1.4-1.3l1.4-1.3l1.4-1.3l1.4-1.3l1.4-1.3l1.4-1.3l1.4-1.3l1.4-1.3l1.4-1.3l1.4-1.3l1.4-1.3l1.4-1.3l1.4-1.3l1.4-1.3l1.4-1.3
		l1.4-1.3l1.4-1.3l1.4-1.3l1.4-1.3l1.4-1.3l1.4-1.3l1.4-1.3l1.4-1.3l1.4-1.3l1.4-1.3l1.4-1.3l1.4-1.3l1.4-1.3l1.4-1.3l1.4-1.3
		l1.4-1.3l1.4-1.3l1.4-1.3l1.4-1.3l1.4-1.3l1.4-1.3l1.4-1.3l1.4-1.3l1.4-1.3l1.4-1.3l1.4,1.3l1.4,1.3l1.4,1.3l1.4,1.3l1.4,1.3
		l1.4,1.3l1.4,1.3l1.4,1.3l1.4,1.3l1.4,1.3l1.4,1.3l1.4,1.3l1.4,1.3l1.4,1.3l1.4,1.3l1.4,1.3l1.4,1.3l1.4,1.3l1.4,1.3l1.4,1.3
		l1.4,1.3l1.4,1.3l1.4,1.3l1.4,1.3l1.4,1.3l1.4,1.3l1.4,1.3l1.4,1.3l1.4,1.3l1.4,1.3l1.4,1.3l1.4,1.3l1.4,1.3l1.4,1.3l1.4,1.3
		l1.4,1.3l1.4,1.3l1.4,1.3l1.4,1.3l1.4,1.3l1.4,1.3l1.4,1.3l1.4,1.3l1.4,1.3l1.4,1.3l1.4,1.3l1.4,1.3l1.4,1.3l1.4,1.3l1.4,1.3
		l1.4,1.3l1.4,1.3l1.4,1.3l1.4,1.3l1.4,1.3l1.4,1.3l1.4,1.3l1.4,1.3l1.4,1.3l1.4,1.3l1.4,1.3l1.4,1.3l1.4,1.3l1.4,1.3l1.4,1.3
		l1.4,1.3l1.4,1.3l1.4,1.3l1.4,1.3l1.4,1.3l1.4,1.3l1.4,1.3h1.4h1.4h1.4h1.4h1.4h1.4h1.4h1.4h1.4h1.4h1.4h1.4h1.4h1.4h1.4h1.4h1.4
		h1.4"/>
	<path class="st10" d="M1215.8,344.9h1.4h1.4h1.4h1.4h1.4h1.4h1.4h1.4h1.4h1.4h1.4h1.4h1.4h1.4h1.4h1.4h1.4h1.4h1.4h1.4h1.4h1.4h1.4
		h1.4h1.4h1.4h1.4h1.4h1.4h1.4h1.4h1.4h1.4h1.4h1.4h1.4h1.4h1.4h1.4h1.4h1.4h1.4h1.4h1.4h1.4h1.4h1.4h1.4h1.4h1.4h1.4h1.4h1.4h1.4
		h1.4h1.4h1.4h1.4h1.4h1.4h1.4h1.4h1.4h1.4h1.4h1.4h1.4h1.4h1.4h1.4h1.4h1.4h1.4h1.4h1.4h1.4h1.4h1.4h1.4h1.4h1.4h1.4h1.4h1.4h1.4
		h1.4h1.4h1.4h1.4h1.4h1.4h1.4h1.4h1.4h1.4h1.4h1.4h1.4h1.4h1.4h1.4h1.4h1.4h1.4h1.4h1.4h1.4h1.4l1.4-1.3l1.4-1.3l1.4-1.3l1.4-1.3
		l1.4-1.3l1.4-1.3l1.4-1.3l1.4-1.3l1.4-1.3l1.4-1.3l1.4-1.3l1.4-1.3l1.4-1.3l1.4-1.3l1.4-1.3l1.4-1.3l1.4-1.3l1.4-1.3l1.4-1.3
		l1.4-1.3l1.4-1.3l1.4-1.3l1.4-1.3l1.4-1.3l1.4-1.3l1.4-1.3l1.4-1.3l1.4-1.3l1.4-1.3l1.4-1.3l1.4-1.3l1.4-1.3l1.4-1.3l1.4-1.3
		l1.4-1.3l1.4-1.3l1.4-1.3l1.4-1.3l1.4-1.3l1.4-1.3l1.4-1.3l1.4-1.3l1.4-1.3l1.4-1.3l1.4-1.3l1.4-1.3l1.4-1.3l1.4-1.3l1.4-1.3
		l1.4-1.3l1.4-1.3l1.4-1.3l1.4-1.3l1.4-1.3l1.4-1.3l1.4-1.3l1.4-1.3l1.4-1.3l1.4-1.3l1.4-1.3l1.4-1.3l1.4-1.3l1.4-1.3l1.4-1.3
		l1.4-1.3l1.4-1.3l1.4-1.3l1.4-1.3l1.4-1.3l1.4-1.3l1.4-1.3l1.4-1.3"/>
	<path class="st7" d="M1191,506h297V397h-297V506z"/>
	<line class="st8" x1="1191" y1="506" x2="1488" y2="506"/>
	<line class="st8" x1="1191" y1="397" x2="1488" y2="397"/>
	<g>
		<text transform="matrix(1 0 0 1 1524.7501 453.0001)" class="st1 st9">EXIT (3)</text>
	</g>
	<line class="st8" x1="1191" y1="506" x2="1191" y2="397"/>
	<line class="st8" x1="1488" y1="506" x2="1488" y2="397"/>
	<path class="st10" d="M1215.8,406.1l1.4,0.5l1.4,0.5l1.4,0.5l1.4,0.5l1.4,0.5l1.4,0.5l1.4,0.5l1.4,0.5l1.4,0.5l1.4,0.5l1.4,0.5
		l1.4,0.5l1.4,0.5l1.4,0.5l1.4,0.5l1.4,0.5l1.4,0.5l1.4,0.5l1.4,0.5l1.4,0.5l1.4,0.5l1.4,0.5l1.4,0.5l1.4,0.5l1.4,0.5l1.4,0.5
		l1.4,0.5l1.4,0.5l1.4,0.5l1.4,0.5l1.4,0.5l1.4,0.5l1.4,0.5l1.4,0.5l1.4,0.5l1.4,0.5l1.4,0.5l1.4,0.5l1.4,0.5l1.4,0.5l1.4,0.5
		l1.4,0.5l1.4,0.5l1.4,0.5l1.4,0.5l1.4,0.5l1.4,0.5l1.4,0.5l1.4,0.5l1.4,0.5l1.4,0.5l1.4,0.5l1.4,0.5l1.4,0.5l1.4,0.5l1.4,0.5
		l1.4,0.5l1.4,0.5l1.4,0.5l1.4,0.5l1.4,0.5l1.4,0.5l1.4,0.5l1.4,0.5l1.4,0.5l1.4,0.5l1.4,0.5l1.4,0.5l1.4,0.5l1.4,0.5l1.4,0.5
		l1.4,0.5l1.4,0.5l1.4,0.5l1.4,0.5l1.4,0.5l1.4,0.5l1.4,0.5l1.4,0.5l1.4,0.5l1.4,0.5l1.4,0.5l1.4,0.5l1.4,0.5l1.4,0.5l1.4,0.5
		l1.4,0.5l1.4,0.5l1.4,0.5l1.4,0.5l1.4,0.5l1.4,0.5l1.4,0.5l1.4,0.5l1.4,0.5l1.4,0.5l1.4,0.5l1.4,0.5l1.4,0.5l1.4,0.5l1.4,0.5
		l1.4,0.5l1.4,0.5l1.4,0.5l1.4,0.5l1.4,0.5l1.4,0.5l1.4,0.5l1.4,0.5l1.4,0.5l1.4,0.5l1.4,0.5l1.4,0.5l1.4,0.5l1.4,0.5l1.4,0.5
		l1.4,0.5l1.4,0.5l1.4,0.5l1.4,0.5l1.4,0.5l1.4,0.5l1.4,0.5l1.4,0.5l1.4,0.5l1.4,0.5l1.4,0.5l1.4,0.5l1.4,0.5l1.4,0.5l1.4,0.5
		l1.4,0.5l1.4,0.5l1.4,0.5l1.4,0.5l1.4,0.5l1.4,0.5l1.4,0.5l1.4,0.5l1.4,0.5l1.4,0.5l1.4,0.5l1.4,0.5l1.4,0.5l1.4,0.5l1.4,0.5
		l1.4,0.5l1.4,0.5l1.4,0.5l1.4,0.5l1.4,0.5l1.4,0.5l1.4,0.5l1.4,0.5l1.4,0.5l1.4,0.5l1.4,0.5l1.4,0.5l1.4,0.5l1.4,0.5l1.4,0.5
		l1.4,0.5l1.4,0.5l1.4,0.5l1.4,0.5l1.4,0.5l1.4,0.5l1.4,0.5l1.4,0.5l1.4,0.5l1.4,0.5l1.4,0.5l1.4,0.5l1.4,0.5l1.4,0.5l1.4,0.5
		l1.4,0.5l1.4,0.5l1.4,0.5l1.4,0.5"/>
	<path class="st10" d="M1215.8,496.9h1.4h1.4h1.4h1.4h1.4h1.4h1.4h1.4h1.4h1.4h1.4h1.4h1.4h1.4h1.4h1.4h1.4h1.4l1.4-1.3l1.4-1.3
		l1.4-1.3l1.4-1.3l1.4-1.3l1.4-1.3l1.4-1.3l1.4-1.3l1.4-1.3l1.4-1.3l1.4-1.3l1.4-1.3l1.4-1.3l1.4-1.3l1.4-1.3l1.4-1.3l1.4-1.3
		l1.4-1.3l1.4-1.3l1.4-1.3l1.4-1.3l1.4-1.3l1.4-1.3l1.4-1.3l1.4-1.3l1.4-1.3l1.4-1.3l1.4-1.3l1.4-1.3l1.4-1.3l1.4-1.3l1.4-1.3
		l1.4-1.3l1.4-1.3l1.4-1.3l1.4-1.3l1.4-1.3l1.4-1.3l1.4-1.3l1.4-1.3l1.4-1.3l1.4-1.3l1.4-1.3l1.4-1.3l1.4-1.3l1.4-1.3l1.4-1.3
		l1.4-1.3l1.4-1.3l1.4-1.3l1.4-1.3l1.4-1.3l1.4-1.3l1.4-1.3l1.4-1.3l1.4-1.3l1.4-1.3l1.4-1.3l1.4-1.3l1.4-1.3l1.4-1.3l1.4-1.3
		l1.4-1.3l1.4-1.3l1.4-1.3l1.4-1.3l1.4-1.3l1.4-1.3l1.4-1.3l1.4-1.3l1.4-1.3l1.4-1.3l1.4,1.3l1.4,1.3l1.4,1.3l1.4,1.3l1.4,1.3
		l1.4,1.3l1.4,1.3l1.4,1.3l1.4,1.3l1.4,1.3l1.4,1.3l1.4,1.3l1.4,1.3l1.4,1.3l1.4,1.3l1.4,1.3l1.4,1.3l1.4,1.3l1.4,1.3l1.4,1.3
		l1.4,1.3l1.4,1.3l1.4,1.3l1.4,1.3l1.4,1.3l1.4,1.3l1.4,1.3l1.4,1.3l1.4,1.3l1.4,1.3l1.4,1.3l1.4,1.3l1.4,1.3l1.4,1.3l1.4,1.3
		l1.4,1.3l1.4,1.3l1.4,1.3l1.4,1.3l1.4,1.3l1.4,1.3l1.4,1.3l1.4,1.3l1.4,1.3l1.4,1.3l1.4,1.3l1.4,1.3l1.4,1.3l1.4,1.3l1.4,1.3
		l1.4,1.3l1.4,1.3l1.4,1.3l1.4,1.3l1.4,1.3l1.4,1.3l1.4,1.3l1.4,1.3l1.4,1.3l1.4,1.3l1.4,1.3l1.4,1.3l1.4,1.3l1.4,1.3l1.4,1.3
		l1.4,1.3l1.4,1.3l1.4,1.3l1.4,1.3l1.4,1.3l1.4,1.3l1.4,1.3h1.4h1.4h1.4h1.4h1.4h1.4h1.4h1.4h1.4h1.4h1.4h1.4h1.4h1.4h1.4h1.4h1.4
		h1.4"/>
	<path class="st10" d="M1215.8,496.9h1.4h1.4h1.4h1.4h1.4h1.4h1.4h1.4h1.4h1.4h1.4h1.4h1.4h1.4h1.4h1.4h1.4h1.4h1.4h1.4h1.4h1.4h1.4
		h1.4h1.4h1.4h1.4h1.4h1.4h1.4h1.4h1.4h1.4h1.4h1.4h1.4h1.4h1.4h1.4h1.4h1.4h1.4h1.4h1.4h1.4h1.4h1.4h1.4h1.4h1.4h1.4h1.4h1.4h1.4
		h1.4h1.4h1.4h1.4h1.4h1.4h1.4h1.4h1.4h1.4h1.4h1.4h1.4h1.4h1.4h1.4h1.4h1.4h1.4h1.4h1.4h1.4h1.4h1.4h1.4h1.4h1.4h1.4h1.4h1.4h1.4
		h1.4h1.4h1.4h1.4h1.4h1.4h1.4h1.4h1.4h1.4h1.4h1.4h1.4h1.4h1.4h1.4h1.4h1.4h1.4h1.4h1.4h1.4h1.4l1.4-1.3l1.4-1.3l1.4-1.3l1.4-1.3
		l1.4-1.3l1.4-1.3l1.4-1.3l1.4-1.3l1.4-1.3l1.4-1.3l1.4-1.3l1.4-1.3l1.4-1.3l1.4-1.3l1.4-1.3l1.4-1.3l1.4-1.3l1.4-1.3l1.4-1.3
		l1.4-1.3l1.4-1.3l1.4-1.3l1.4-1.3l1.4-1.3l1.4-1.3l1.4-1.3l1.4-1.3l1.4-1.3l1.4-1.3l1.4-1.3l1.4-1.3l1.4-1.3l1.4-1.3l1.4-1.3
		l1.4-1.3l1.4-1.3l1.4-1.3l1.4-1.3l1.4-1.3l1.4-1.3l1.4-1.3l1.4-1.3l1.4-1.3l1.4-1.3l1.4-1.3l1.4-1.3l1.4-1.3l1.4-1.3l1.4-1.3
		l1.4-1.3l1.4-1.3l1.4-1.3l1.4-1.3l1.4-1.3l1.4-1.3l1.4-1.3l1.4-1.3l1.4-1.3l1.4-1.3l1.4-1.3l1.4-1.3l1.4-1.3l1.4-1.3l1.4-1.3
		l1.4-1.3l1.4-1.3l1.4-1.3l1.4-1.3l1.4-1.3l1.4-1.3l1.4-1.3l1.4-1.3"/>
	<path class="st7" d="M1191,659h297V550h-297V659z"/>
	<line class="st8" x1="1191" y1="659" x2="1488" y2="659"/>
	<line class="st8" x1="1191" y1="550" x2="1488" y2="550"/>
	<g>
		<text transform="matrix(1 0 0 1 1512.7501 606.0001)" class="st1 st9">ESCAPE (3)</text>
	</g>
	<line class="st8" x1="1191" y1="659" x2="1191" y2="550"/>
	<line class="st8" x1="1488" y1="659" x2="1488" y2="550"/>
	<path class="st10" d="M1215.8,559.1l1.4,0.5l1.4,0.5l1.4,0.5l1.4,0.5l1.4,0.5l1.4,0.5l1.4,0.5l1.4,0.5l1.4,0.5l1.4,0.5l1.4,0.5
		l1.4,0.5l1.4,0.5l1.4,0.5l1.4,0.5l1.4,0.5l1.4,0.5l1.4,0.5l1.4,0.5l1.4,0.5l1.4,0.5l1.4,0.5l1.4,0.5l1.4,0.5l1.4,0.5l1.4,0.5
		l1.4,0.5l1.4,0.5l1.4,0.5l1.4,0.5l1.4,0.5l1.4,0.5l1.4,0.5l1.4,0.5l1.4,0.5l1.4,0.5l1.4,0.5l1.4,0.5l1.4,0.5l1.4,0.5l1.4,0.5
		l1.4,0.5l1.4,0.5l1.4,0.5l1.4,0.5l1.4,0.5l1.4,0.5l1.4,0.5l1.4,0.5l1.4,0.5l1.4,0.5l1.4,0.5l1.4,0.5l1.4,0.5l1.4,0.5l1.4,0.5
		l1.4,0.5l1.4,0.5l1.4,0.5l1.4,0.5l1.4,0.5l1.4,0.5l1.4,0.5l1.4,0.5l1.4,0.5l1.4,0.5l1.4,0.5l1.4,0.5l1.4,0.5l1.4,0.5l1.4,0.5
		l1.4,0.5l1.4,0.5l1.4,0.5l1.4,0.5l1.4,0.5l1.4,0.5l1.4,0.5l1.4,0.5l1.4,0.5l1.4,0.5l1.4,0.5l1.4,0.5l1.4,0.5l1.4,0.5l1.4,0.5
		l1.4,0.5l1.4,0.5l1.4,0.5l1.4,0.5l1.4,0.5l1.4,0.5l1.4,0.5l1.4,0.5l1.4,0.5l1.4,0.5l1.4,0.5l1.4,0.5l1.4,0.5l1.4,0.5l1.4,0.5
		l1.4,0.5l1.4,0.5l1.4,0.5l1.4,0.5l1.4,0.5l1.4,0.5l1.4,0.5l1.4,0.5l1.4,0.5l1.4,0.5l1.4,0.5l1.4,0.5l1.4,0.5l1.4,0.5l1.4,0.5
		l1.4,0.5l1.4,0.5l1.4,0.5l1.4,0.5l1.4,0.5l1.4,0.5l1.4,0.5l1.4,0.5l1.4,0.5l1.4,0.5l1.4,0.5l1.4,0.5l1.4,0.5l1.4,0.5l1.4,0.5
		l1.4,0.5l1.4,0.5l1.4,0.5l1.4,0.5l1.4,0.5l1.4,0.5l1.4,0.5l1.4,0.5l1.4,0.5l1.4,0.5l1.4,0.5l1.4,0.5l1.4,0.5l1.4,0.5l1.4,0.5
		l1.4,0.5l1.4,0.5l1.4,0.5l1.4,0.5l1.4,0.5l1.4,0.5l1.4,0.5l1.4,0.5l1.4,0.5l1.4,0.5l1.4,0.5l1.4,0.5l1.4,0.5l1.4,0.5l1.4,0.5
		l1.4,0.5l1.4,0.5l1.4,0.5l1.4,0.5l1.4,0.5l1.4,0.5l1.4,0.5l1.4,0.5l1.4,0.5l1.4,0.5l1.4,0.5l1.4,0.5l1.4,0.5l1.4,0.5l1.4,0.5
		l1.4,0.5l1.4,0.5l1.4,0.5l1.4,0.5"/>
	<path class="st10" d="M1215.8,649.9h1.4h1.4h1.4h1.4h1.4h1.4h1.4h1.4h1.4h1.4h1.4h1.4h1.4h1.4h1.4h1.4h1.4h1.4l1.4-1.3l1.4-1.3
		l1.4-1.3l1.4-1.3l1.4-1.3l1.4-1.3l1.4-1.3l1.4-1.3l1.4-1.3l1.4-1.3l1.4-1.3l1.4-1.3l1.4-1.3l1.4-1.3l1.4-1.3l1.4-1.3l1.4-1.3
		l1.4-1.3l1.4-1.3l1.4-1.3l1.4-1.3l1.4-1.3l1.4-1.3l1.4-1.3l1.4-1.3l1.4-1.3l1.4-1.3l1.4-1.3l1.4-1.3l1.4-1.3l1.4-1.3l1.4-1.3
		l1.4-1.3l1.4-1.3l1.4-1.3l1.4-1.3l1.4-1.3l1.4-1.3l1.4-1.3l1.4-1.3l1.4-1.3l1.4-1.3l1.4-1.3l1.4-1.3l1.4-1.3l1.4-1.3l1.4-1.3
		l1.4-1.3l1.4-1.3l1.4-1.3l1.4-1.3l1.4-1.3l1.4-1.3l1.4-1.3l1.4-1.3l1.4-1.3l1.4-1.3l1.4-1.3l1.4-1.3l1.4-1.3l1.4-1.3l1.4-1.3
		l1.4-1.3l1.4-1.3l1.4-1.3l1.4-1.3l1.4-1.3l1.4-1.3l1.4-1.3l1.4-1.3l1.4-1.3l1.4-1.3l1.4,1.3l1.4,1.3l1.4,1.3l1.4,1.3l1.4,1.3
		l1.4,1.3l1.4,1.3l1.4,1.3l1.4,1.3l1.4,1.3l1.4,1.3l1.4,1.3l1.4,1.3l1.4,1.3l1.4,1.3l1.4,1.3l1.4,1.3l1.4,1.3l1.4,1.3l1.4,1.3
		l1.4,1.3l1.4,1.3l1.4,1.3l1.4,1.3l1.4,1.3l1.4,1.3l1.4,1.3l1.4,1.3l1.4,1.3l1.4,1.3l1.4,1.3l1.4,1.3l1.4,1.3l1.4,1.3l1.4,1.3
		l1.4,1.3l1.4,1.3l1.4,1.3l1.4,1.3l1.4,1.3l1.4,1.3l1.4,1.3l1.4,1.3l1.4,1.3l1.4,1.3l1.4,1.3l1.4,1.3l1.4,1.3l1.4,1.3l1.4,1.3
		l1.4,1.3l1.4,1.3l1.4,1.3l1.4,1.3l1.4,1.3l1.4,1.3l1.4,1.3l1.4,1.3l1.4,1.3l1.4,1.3l1.4,1.3l1.4,1.3l1.4,1.3l1.4,1.3l1.4,1.3
		l1.4,1.3l1.4,1.3l1.4,1.3l1.4,1.3l1.4,1.3l1.4,1.3l1.4,1.3h1.4h1.4h1.4h1.4h1.4h1.4h1.4h1.4h1.4h1.4h1.4h1.4h1.4h1.4h1.4h1.4h1.4
		h1.4"/>
	<path class="st10" d="M1215.8,649.9h1.4h1.4h1.4h1.4h1.4h1.4h1.4h1.4h1.4h1.4h1.4h1.4h1.4h1.4h1.4h1.4h1.4h1.4h1.4h1.4h1.4h1.4h1.4
		h1.4h1.4h1.4h1.4h1.4h1.4h1.4h1.4h1.4h1.4h1.4h1.4h1.4h1.4h1.4h1.4h1.4h1.4h1.4h1.4h1.4h1.4h1.4h1.4h1.4h1.4h1.4h1.4h1.4h1.4h1.4
		h1.4h1.4h1.4h1.4h1.4h1.4h1.4h1.4h1.4h1.4h1.4h1.4h1.4h1.4h1.4h1.4h1.4h1.4h1.4h1.4h1.4h1.4h1.4h1.4h1.4h1.4h1.4h1.4h1.4h1.4h1.4
		h1.4h1.4h1.4h1.4h1.4h1.4h1.4h1.4h1.4h1.4h1.4h1.4h1.4h1.4h1.4h1.4h1.4h1.4h1.4h1.4h1.4h1.4h1.4l1.4-1.3l1.4-1.3l1.4-1.3l1.4-1.3
		l1.4-1.3l1.4-1.3l1.4-1.3l1.4-1.3l1.4-1.3l1.4-1.3l1.4-1.3l1.4-1.3l1.4-1.3l1.4-1.3l1.4-1.3l1.4-1.3l1.4-1.3l1.4-1.3l1.4-1.3
		l1.4-1.3l1.4-1.3l1.4-1.3l1.4-1.3l1.4-1.3l1.4-1.3l1.4-1.3l1.4-1.3l1.4-1.3l1.4-1.3l1.4-1.3l1.4-1.3l1.4-1.3l1.4-1.3l1.4-1.3
		l1.4-1.3l1.4-1.3l1.4-1.3l1.4-1.3l1.4-1.3l1.4-1.3l1.4-1.3l1.4-1.3l1.4-1.3l1.4-1.3l1.4-1.3l1.4-1.3l1.4-1.3l1.4-1.3l1.4-1.3
		l1.4-1.3l1.4-1.3l1.4-1.3l1.4-1.3l1.4-1.3l1.4-1.3l1.4-1.3l1.4-1.3l1.4-1.3l1.4-1.3l1.4-1.3l1.4-1.3l1.4-1.3l1.4-1.3l1.4-1.3
		l1.4-1.3l1.4-1.3l1.4-1.3l1.4-1.3l1.4-1.3l1.4-1.3l1.4-1.3l1.4-1.3"/>
	<path class="st7" d="M1191,811h297V702h-297V811z"/>
	<line class="st8" x1="1191" y1="811" x2="1488" y2="811"/>
	<line class="st8" x1="1191" y1="702" x2="1488" y2="702"/>
	<g>
		<text transform="matrix(1 0 0 1 1512.7628 758.0001)" class="st1 st9">TEMPT (3)</text>
	</g>
	<line class="st8" x1="1191" y1="811" x2="1191" y2="702"/>
	<line class="st8" x1="1488" y1="811" x2="1488" y2="702"/>
	<path class="st10" d="M1215.8,711.1l1.4,0.5l1.4,0.5l1.4,0.5l1.4,0.5l1.4,0.5l1.4,0.5l1.4,0.5l1.4,0.5l1.4,0.5l1.4,0.5l1.4,0.5
		l1.4,0.5l1.4,0.5l1.4,0.5l1.4,0.5l1.4,0.5l1.4,0.5l1.4,0.5l1.4,0.5l1.4,0.5l1.4,0.5l1.4,0.5l1.4,0.5l1.4,0.5l1.4,0.5l1.4,0.5
		l1.4,0.5l1.4,0.5l1.4,0.5l1.4,0.5l1.4,0.5l1.4,0.5l1.4,0.5l1.4,0.5l1.4,0.5l1.4,0.5l1.4,0.5l1.4,0.5l1.4,0.5l1.4,0.5l1.4,0.5
		l1.4,0.5l1.4,0.5l1.4,0.5l1.4,0.5l1.4,0.5l1.4,0.5l1.4,0.5l1.4,0.5l1.4,0.5l1.4,0.5l1.4,0.5l1.4,0.5l1.4,0.5l1.4,0.5l1.4,0.5
		l1.4,0.5l1.4,0.5l1.4,0.5l1.4,0.5l1.4,0.5l1.4,0.5l1.4,0.5l1.4,0.5l1.4,0.5l1.4,0.5l1.4,0.5l1.4,0.5l1.4,0.5l1.4,0.5l1.4,0.5
		l1.4,0.5l1.4,0.5l1.4,0.5l1.4,0.5l1.4,0.5l1.4,0.5l1.4,0.5l1.4,0.5l1.4,0.5l1.4,0.5l1.4,0.5l1.4,0.5l1.4,0.5l1.4,0.5l1.4,0.5
		l1.4,0.5l1.4,0.5l1.4,0.5l1.4,0.5l1.4,0.5l1.4,0.5l1.4,0.5l1.4,0.5l1.4,0.5l1.4,0.5l1.4,0.5l1.4,0.5l1.4,0.5l1.4,0.5l1.4,0.5
		l1.4,0.5l1.4,0.5l1.4,0.5l1.4,0.5l1.4,0.5l1.4,0.5l1.4,0.5l1.4,0.5l1.4,0.5l1.4,0.5l1.4,0.5l1.4,0.5l1.4,0.5l1.4,0.5l1.4,0.5
		l1.4,0.5l1.4,0.5l1.4,0.5l1.4,0.5l1.4,0.5l1.4,0.5l1.4,0.5l1.4,0.5l1.4,0.5l1.4,0.5l1.4,0.5l1.4,0.5l1.4,0.5l1.4,0.5l1.4,0.5
		l1.4,0.5l1.4,0.5l1.4,0.5l1.4,0.5l1.4,0.5l1.4,0.5l1.4,0.5l1.4,0.5l1.4,0.5l1.4,0.5l1.4,0.5l1.4,0.5l1.4,0.5l1.4,0.5l1.4,0.5
		l1.4,0.5l1.4,0.5l1.4,0.5l1.4,0.5l1.4,0.5l1.4,0.5l1.4,0.5l1.4,0.5l1.4,0.5l1.4,0.5l1.4,0.5l1.4,0.5l1.4,0.5l1.4,0.5l1.4,0.5
		l1.4,0.5l1.4,0.5l1.4,0.5l1.4,0.5l1.4,0.5l1.4,0.5l1.4,0.5l1.4,0.5l1.4,0.5l1.4,0.5l1.4,0.5l1.4,0.5l1.4,0.5l1.4,0.5l1.4,0.5
		l1.4,0.5l1.4,0.5l1.4,0.5l1.4,0.5"/>
	<path class="st10" d="M1215.8,801.9h1.4h1.4h1.4h1.4h1.4h1.4h1.4h1.4h1.4h1.4h1.4h1.4h1.4h1.4h1.4h1.4h1.4h1.4l1.4-1.3l1.4-1.3
		l1.4-1.3l1.4-1.3l1.4-1.3l1.4-1.3l1.4-1.3l1.4-1.3l1.4-1.3l1.4-1.3l1.4-1.3l1.4-1.3l1.4-1.3l1.4-1.3l1.4-1.3l1.4-1.3l1.4-1.3
		l1.4-1.3l1.4-1.3l1.4-1.3l1.4-1.3l1.4-1.3l1.4-1.3l1.4-1.3l1.4-1.3l1.4-1.3l1.4-1.3l1.4-1.3l1.4-1.3l1.4-1.3l1.4-1.3l1.4-1.3
		l1.4-1.3l1.4-1.3l1.4-1.3l1.4-1.3l1.4-1.3l1.4-1.3l1.4-1.3l1.4-1.3l1.4-1.3l1.4-1.3l1.4-1.3l1.4-1.3l1.4-1.3l1.4-1.3l1.4-1.3
		l1.4-1.3l1.4-1.3l1.4-1.3l1.4-1.3l1.4-1.3l1.4-1.3l1.4-1.3l1.4-1.3l1.4-1.3l1.4-1.3l1.4-1.3l1.4-1.3l1.4-1.3l1.4-1.3l1.4-1.3
		l1.4-1.3l1.4-1.3l1.4-1.3l1.4-1.3l1.4-1.3l1.4-1.3l1.4-1.3l1.4-1.3l1.4-1.3l1.4-1.3l1.4,1.3l1.4,1.3l1.4,1.3l1.4,1.3l1.4,1.3
		l1.4,1.3l1.4,1.3l1.4,1.3l1.4,1.3l1.4,1.3l1.4,1.3l1.4,1.3l1.4,1.3l1.4,1.3l1.4,1.3l1.4,1.3l1.4,1.3l1.4,1.3l1.4,1.3l1.4,1.3
		l1.4,1.3l1.4,1.3l1.4,1.3l1.4,1.3l1.4,1.3l1.4,1.3l1.4,1.3l1.4,1.3l1.4,1.3l1.4,1.3l1.4,1.3l1.4,1.3l1.4,1.3l1.4,1.3l1.4,1.3
		l1.4,1.3l1.4,1.3l1.4,1.3l1.4,1.3l1.4,1.3l1.4,1.3l1.4,1.3l1.4,1.3l1.4,1.3l1.4,1.3l1.4,1.3l1.4,1.3l1.4,1.3l1.4,1.3l1.4,1.3
		l1.4,1.3l1.4,1.3l1.4,1.3l1.4,1.3l1.4,1.3l1.4,1.3l1.4,1.3l1.4,1.3l1.4,1.3l1.4,1.3l1.4,1.3l1.4,1.3l1.4,1.3l1.4,1.3l1.4,1.3
		l1.4,1.3l1.4,1.3l1.4,1.3l1.4,1.3l1.4,1.3l1.4,1.3l1.4,1.3h1.4h1.4h1.4h1.4h1.4h1.4h1.4h1.4h1.4h1.4h1.4h1.4h1.4h1.4h1.4h1.4h1.4
		h1.4"/>
	<path class="st10" d="M1215.8,801.9h1.4h1.4h1.4h1.4h1.4h1.4h1.4h1.4h1.4h1.4h1.4h1.4h1.4h1.4h1.4h1.4h1.4h1.4h1.4h1.4h1.4h1.4h1.4
		h1.4h1.4h1.4h1.4h1.4h1.4h1.4h1.4h1.4h1.4h1.4h1.4h1.4h1.4h1.4h1.4h1.4h1.4h1.4h1.4h1.4h1.4h1.4h1.4h1.4h1.4h1.4h1.4h1.4h1.4h1.4
		h1.4h1.4h1.4h1.4h1.4h1.4h1.4h1.4h1.4h1.4h1.4h1.4h1.4h1.4h1.4h1.4h1.4h1.4h1.4h1.4h1.4h1.4h1.4h1.4h1.4h1.4h1.4h1.4h1.4h1.4h1.4
		h1.4h1.4h1.4h1.4h1.4h1.4h1.4h1.4h1.4h1.4h1.4h1.4h1.4h1.4h1.4h1.4h1.4h1.4h1.4h1.4h1.4h1.4h1.4l1.4-1.3l1.4-1.3l1.4-1.3l1.4-1.3
		l1.4-1.3l1.4-1.3l1.4-1.3l1.4-1.3l1.4-1.3l1.4-1.3l1.4-1.3l1.4-1.3l1.4-1.3l1.4-1.3l1.4-1.3l1.4-1.3l1.4-1.3l1.4-1.3l1.4-1.3
		l1.4-1.3l1.4-1.3l1.4-1.3l1.4-1.3l1.4-1.3l1.4-1.3l1.4-1.3l1.4-1.3l1.4-1.3l1.4-1.3l1.4-1.3l1.4-1.3l1.4-1.3l1.4-1.3l1.4-1.3
		l1.4-1.3l1.4-1.3l1.4-1.3l1.4-1.3l1.4-1.3l1.4-1.3l1.4-1.3l1.4-1.3l1.4-1.3l1.4-1.3l1.4-1.3l1.4-1.3l1.4-1.3l1.4-1.3l1.4-1.3
		l1.4-1.3l1.4-1.3l1.4-1.3l1.4-1.3l1.4-1.3l1.4-1.3l1.4-1.3l1.4-1.3l1.4-1.3l1.4-1.3l1.4-1.3l1.4-1.3l1.4-1.3l1.4-1.3l1.4-1.3
		l1.4-1.3l1.4-1.3l1.4-1.3l1.4-1.3l1.4-1.3l1.4-1.3l1.4-1.3l1.4-1.3"/>
	<path class="st11" d="M845,779h297V125H845V779z"/>
	<line class="st8" x1="845" y1="779" x2="1142" y2="779"/>
	<line class="st8" x1="845" y1="125" x2="1142" y2="125"/>
	<line class="st8" x1="845" y1="779" x2="845" y2="125"/>
	<line class="st8" x1="1142" y1="779" x2="1142" y2="125"/>
	<text transform="matrix(1 0 0 1 941.4268 478.6635)" class="st1 st12">FIS</text>
	<text transform="matrix(1 0 0 1 945.8494 527.7996)" class="st1 st13">18 rules</text>
	<text transform="matrix(1 0 0 1 433.2629 102.5)" class="st1 st9">CG (2)</text>
	<text transform="matrix(1 0 0 1 436.5481 165.5)" class="st1 st9">CE (2)</text>
	<text transform="matrix(1 0 0 1 435.5666 229.5)" class="st1 st9">LG (2)</text>
	<text transform="matrix(1 0 0 1 438.8523 292.5001)" class="st1 st9">LE (2)</text>
	<text transform="matrix(1 0 0 1 419.0549 356.5001)" class="st1 st9">CGD (3)</text>
	<text transform="matrix(1 0 0 1 407.1086 420.5001)" class="st1 st9">CGGC (2)</text>
	<text transform="matrix(1 0 0 1 410.3938 483.5001)" class="st1 st9">CGEC (2)</text>
	<text transform="matrix(1 0 0 1 420.0149 547.5001)" class="st1 st9">DOE (3)</text>
	<text transform="matrix(1 0 0 1 436.5481 610.5001)" class="st1 st9">EC (2)</text>
	<text transform="matrix(1 0 0 1 406.1057 674.5001)" class="st1 st9">ODHE (3)</text>
	<text transform="matrix(1 0 0 1 420.8044 737.5001)" class="st1 st9">DHE (3)</text>
	<text transform="matrix(1 0 0 1 395.5031 801.5001)" class="st1 st9">OTDHE (3)</text>
</g>
</svg>
